<svg version="1.1" id="Layer_1" xmlns="http://www.w3.org/2000/svg" xmlns:xlink="http://www.w3.org/1999/xlink" x="0px" y="0px"
	 width="100%" viewBox="0 0 298 325" enable-background="new 0 0 298 325" xml:space="preserve">
<path fill="#000000" opacity="1.000000" stroke="none" 
	d="
M299.000000,118.000000 
	C299.000000,187.666672 299.000000,256.833344 299.000000,326.000000 
	C199.666672,326.000000 100.333336,326.000000 1.000000,326.000000 
	C1.000000,217.666672 1.000000,109.333336 1.000000,1.000000 
	C100.333336,1.000000 199.666672,1.000000 299.000000,1.000000 
	C299.000000,39.833332 299.000000,78.666664 299.000000,118.000000 
M143.954926,59.951393 
	C143.954926,59.951393 143.942978,59.873184 143.242218,60.008827 
	C142.462265,60.325706 141.682312,60.642586 140.948166,60.886433 
	C140.948166,60.886433 140.873032,60.844147 140.117905,60.971607 
	C134.482941,62.956841 128.909271,65.150421 123.185654,66.834320 
	C120.552589,67.608978 119.774559,68.255966 120.509132,71.190529 
	C123.533997,83.274651 126.178368,95.453461 129.027740,107.582169 
	C134.646759,131.500137 140.344437,155.399658 145.937378,179.323685 
	C148.439606,190.027115 150.672501,200.794037 153.231842,211.483261 
	C154.017487,214.764648 155.480392,217.883911 156.633179,221.077408 
	C157.252274,220.982437 157.871368,220.887451 158.490463,220.792480 
	C159.611877,212.525772 160.733292,204.259048 161.987915,195.152054 
	C162.687927,189.123901 163.387955,183.095734 164.789566,176.637131 
	C165.551834,170.354385 166.206863,164.056351 167.100098,157.792282 
	C168.654510,146.891342 170.411758,136.019409 171.979340,125.120262 
	C173.434265,115.004311 174.644928,104.852287 176.185913,94.750130 
	C176.769867,90.921928 178.423630,87.945076 182.398773,85.860260 
	C187.326447,83.275879 191.571838,79.390633 196.031555,76.044792 
	C196.031555,76.044792 196.063263,76.122032 196.762955,76.025406 
	C198.546997,74.707390 200.331039,73.389381 202.034042,72.044441 
	C202.034042,72.044441 202.065628,72.123764 202.773468,72.034767 
	C204.880035,70.373878 206.986603,68.712990 209.018021,67.031570 
	C209.018021,67.031570 209.047684,67.103615 209.697800,66.998825 
	C210.496536,66.352303 211.295288,65.705780 212.016190,65.023888 
	C212.016190,65.023888 212.056091,65.099518 212.777420,65.024193 
	C224.788071,56.905331 236.827591,48.828617 248.788574,40.637234 
	C251.688507,38.651245 254.329575,36.287251 257.804016,34.009014 
	C261.401886,31.128628 266.825745,30.156912 268.528564,23.063261 
	C260.990265,25.051424 254.458755,26.622427 248.017929,28.503916 
	C234.031052,32.589775 220.049286,36.702976 206.147507,41.066444 
	C198.640549,43.422718 191.302658,46.317673 183.443695,49.022949 
	C183.443695,49.022949 183.018417,49.163834 182.194244,49.006989 
	C175.121033,51.057365 168.047806,53.107742 160.177444,55.033180 
	C158.035416,55.686417 155.893402,56.339653 153.374573,56.948112 
	C153.374573,56.948112 153.034103,57.115635 152.283279,57.010990 
	C151.422882,57.340778 150.562485,57.670567 149.378174,57.929348 
	C149.378174,57.929348 149.086182,58.086510 148.379807,57.986366 
	C147.820999,58.318974 147.262192,58.651581 146.362183,58.921883 
	C146.362183,58.921883 146.055725,59.084293 145.389084,58.993912 
	C144.885452,59.306660 144.381805,59.619408 143.954926,59.951393 
M92.993042,275.966492 
	C92.993042,275.966492 93.079987,275.940735 92.921638,275.364929 
	C92.280342,274.958282 91.639046,274.551605 90.499229,273.987610 
	C90.332458,274.038116 90.165695,274.088654 89.409431,274.135223 
	C89.001953,274.746277 88.594475,275.357300 88.035225,276.832306 
	C88.035225,278.107910 88.035225,279.383484 88.035225,280.659088 
	C87.613480,280.265015 87.191742,279.870972 86.769997,279.476898 
	C83.530327,281.357941 80.290649,283.239014 76.243958,285.265045 
	C76.074142,286.998322 75.904327,288.731598 75.665199,291.172363 
	C75.003433,287.505402 74.479050,284.599670 73.621925,281.067108 
	C72.431366,281.081726 71.240814,281.096344 69.290405,281.174561 
	C69.216606,283.816132 69.142807,286.457703 68.896080,289.335297 
	C68.896080,289.335297 69.015160,289.602570 68.482613,289.998199 
	C68.661385,290.471771 68.840157,290.945374 68.867805,291.526337 
	C68.867805,291.526337 68.954033,291.690460 68.427299,292.027191 
	C67.930527,292.654114 67.433746,293.281006 66.976181,293.993317 
	C66.976181,293.993317 66.970619,293.899567 66.242317,293.973145 
	C65.190544,293.275818 64.138779,292.578491 63.010029,291.114807 
	C62.559494,287.448151 62.108955,283.781464 61.658421,280.114807 
	C60.951469,280.096588 60.244518,280.078369 59.537567,280.060150 
	C59.022808,281.973206 58.161926,283.872925 58.087315,285.802979 
	C58.007252,287.873932 58.830177,289.962402 58.972069,292.062622 
	C59.390579,298.257111 63.104263,300.434570 69.704277,297.992218 
	C71.133194,297.688751 72.562103,297.385284 74.641777,296.872620 
	C74.868675,296.015778 75.095573,295.158905 75.346375,294.211792 
	C76.242378,294.855652 77.098595,295.470917 77.982811,296.020844 
	C77.982811,296.020844 77.911812,296.017517 78.066528,296.576752 
	C78.383362,296.788971 78.700195,297.001160 79.393112,297.893707 
	C83.592110,297.884949 87.791115,297.876160 92.783516,297.689148 
	C92.825783,291.098846 92.868057,284.508545 93.073380,277.630371 
	C93.073380,277.630371 93.016121,277.304535 93.531479,277.013885 
	C93.376701,276.647186 93.221924,276.280457 92.993042,275.966492 
M157.660233,267.987335 
	C158.115402,267.940094 158.570572,267.892883 159.780624,267.694366 
	C160.129303,265.465057 160.477997,263.235748 160.970108,260.301788 
	C160.994629,259.584656 161.019150,258.867493 161.795486,258.071869 
	C163.522720,259.968719 165.583023,261.659607 166.909454,263.804352 
	C169.883514,268.613098 173.956482,269.643738 179.114838,266.171661 
	C178.112778,264.435303 177.090851,262.664551 176.019836,260.994995 
	C176.019836,260.994995 176.116028,260.936615 176.028839,260.182159 
	C175.630798,257.678375 173.997269,254.069336 175.064484,252.876358 
	C178.372131,249.178970 178.164261,245.222565 178.207520,240.438217 
	C182.221771,247.950485 188.770569,254.319962 188.107834,263.914062 
	C187.863358,267.453094 191.064850,267.745605 193.710724,267.958099 
	C196.894104,268.213837 196.941879,266.005615 197.008621,263.675934 
	C197.092514,260.747498 196.593170,257.422211 197.792496,254.978241 
	C201.188263,248.058624 205.321762,241.501038 209.091766,234.927948 
	C199.108902,228.869308 195.945816,236.899567 191.992279,243.567642 
	C190.421875,241.041504 188.935013,239.255615 188.118027,237.203094 
	C186.644318,233.500702 183.224106,233.685501 180.424698,233.358536 
	C177.662964,233.035980 175.765549,235.063568 174.768097,237.256348 
	C173.126282,236.189484 171.484467,235.122620 169.671600,233.182343 
	C163.460098,233.182343 157.248596,233.182343 150.995071,233.182343 
	C150.995071,244.171432 150.968964,254.619568 151.040039,265.067017 
	C151.046356,265.996216 151.684875,266.921143 152.686249,267.978638 
	C153.128098,267.930420 153.569931,267.882202 154.748566,267.969879 
	C155.493851,267.930267 156.239151,267.890686 157.660233,267.987335 
M257.979736,111.346077 
	C257.646423,110.837532 257.313110,110.328987 257.022125,109.048363 
	C252.636993,96.527321 248.233215,84.012764 243.879852,71.480675 
	C242.791397,68.347298 241.865265,65.157532 240.805496,61.309353 
	C240.117569,60.258427 239.429657,59.207500 238.720978,58.124878 
	C236.925568,59.055523 235.399353,59.846634 233.960617,60.592396 
	C234.343796,62.813667 234.614395,64.729301 235.011002,66.618469 
	C236.366226,73.073654 237.765762,79.519524 239.028564,86.829201 
	C240.681213,94.750473 242.616013,102.625809 243.915100,110.604652 
	C245.539734,120.582901 246.527344,130.663712 248.055283,140.659698 
	C248.407471,142.963821 249.441040,146.695114 250.841156,147.044540 
	C257.142090,148.617050 263.667664,148.888565 270.602051,146.402664 
	C268.305023,140.601196 266.195587,135.273560 263.978760,129.171509 
	C263.646088,128.006622 263.313446,126.841728 263.053314,125.392159 
	C263.053314,125.392159 262.907593,125.137054 263.016998,124.405891 
	C262.671356,123.825066 262.325714,123.244240 262.051941,122.390686 
	C262.051941,122.390686 261.897919,122.154434 261.992859,121.415176 
	C261.651123,120.822678 261.309418,120.230179 261.056305,119.424561 
	C261.056305,119.424561 260.912872,119.243744 261.022430,118.443741 
	C260.029266,116.271286 259.036102,114.098824 258.008331,111.985107 
	C258.008331,111.985107 258.073822,112.004066 257.979736,111.346077 
M26.024788,170.582520 
	C26.330935,170.773376 26.637081,170.964233 26.941446,171.073486 
	C26.941446,171.073486 26.862078,171.092560 27.144440,171.693619 
	C29.068380,173.504929 30.992321,175.316254 32.942631,177.048462 
	C32.942631,177.048462 32.861019,177.065506 33.051651,177.568893 
	C33.363792,177.668350 33.675934,177.767807 34.639347,178.139603 
	C36.049992,179.225922 37.337631,180.545975 38.890026,181.362946 
	C57.559315,191.188080 80.392471,188.569901 95.504623,172.851517 
	C98.821396,169.401688 101.229309,165.078049 104.711067,160.884842 
	C107.416061,157.203751 107.437492,156.961243 104.714607,155.236206 
	C76.767113,155.160019 48.819622,155.076767 20.872074,155.050858 
	C20.213215,155.050247 19.553759,155.693268 18.236965,156.335922 
	C19.462366,158.939835 20.687765,161.543762 21.928776,164.064941 
	C21.928776,164.064941 21.847614,164.087341 21.953056,164.784180 
	C23.268009,166.569839 24.582962,168.355499 25.924463,170.065231 
	C25.924463,170.065231 25.844440,170.056976 26.024788,170.582520 
M210.044327,278.540344 
	C210.341324,278.713867 210.638321,278.887390 211.002792,279.987488 
	C211.340149,286.011383 211.677505,292.035278 212.195694,298.624603 
	C212.796509,298.423859 213.397324,298.223114 214.773895,297.615265 
	C214.877838,291.436493 214.981796,285.257721 215.597916,278.932983 
	C215.769821,278.632324 215.941742,278.331665 216.922516,277.998322 
	C218.189499,277.999847 219.473129,278.106750 220.709000,277.911377 
	C220.947388,277.873688 220.998627,276.652252 220.690170,275.214020 
	C215.775528,275.479431 210.860901,275.744843 205.285110,276.338715 
	C206.819473,276.901062 208.353851,277.463379 210.044327,278.540344 
M209.046555,177.592300 
	C209.370895,177.689453 209.695236,177.786606 210.465820,178.009598 
	C210.465820,178.009598 210.924652,178.076309 211.258636,178.696335 
	C218.407074,183.841400 226.288879,186.705734 235.178284,187.035599 
	C247.188400,187.481247 257.904480,184.155014 267.755402,176.766449 
	C267.755402,176.766449 267.879517,176.446060 268.376556,176.103546 
	C270.300873,174.091492 272.225189,172.079422 274.755737,169.741531 
	C276.319855,167.112106 277.884003,164.482681 279.763702,161.731979 
	C279.763702,161.731979 279.880249,161.414597 280.419586,161.098206 
	C280.558655,159.415756 280.697754,157.733292 280.644470,155.184525 
	C252.535812,155.123245 224.427139,155.053101 196.318466,155.043961 
	C195.483414,155.043701 194.648178,155.684311 193.237625,156.316498 
	C194.799347,158.918671 196.361053,161.520859 197.945297,164.039307 
	C197.945297,164.039307 197.865845,164.074066 197.952896,164.827042 
	C199.606674,166.928238 201.260452,169.029449 202.956940,171.039734 
	C202.956940,171.039734 202.868744,171.087799 203.143250,171.692886 
	C205.061951,173.510269 206.980652,175.327652 208.925446,177.064926 
	C208.925446,177.064926 208.841904,177.075912 209.046555,177.592300 
M50.867981,292.541412 
	C50.899689,293.408722 50.931393,294.276001 50.220787,295.139709 
	C50.052879,295.736603 49.884975,296.333466 49.717075,296.930359 
	C51.030457,296.930237 53.201176,297.398712 53.503300,296.845947 
	C54.595409,294.847687 55.349064,292.548981 55.684380,290.282898 
	C56.072735,287.658325 56.006859,284.943878 55.905781,282.277252 
	C55.833435,280.368622 55.743538,278.290436 54.921700,276.661041 
	C54.574738,275.973114 52.326473,276.244232 51.011948,276.996948 
	C51.053955,281.980988 51.095963,286.964996 50.867981,292.541412 
M116.067093,233.999084 
	C116.067093,233.999084 116.154160,233.962677 115.701653,233.229034 
	C114.718567,233.151443 113.736206,233.017853 112.752289,233.005295 
	C105.923325,232.918106 105.903931,232.926331 105.959671,239.739944 
	C106.009560,245.837021 106.108276,251.933670 105.818222,258.657135 
	C104.169319,258.570465 102.218437,259.019714 100.929863,258.293610 
	C97.480125,256.349670 95.325592,259.007202 92.781410,260.142212 
	C92.324615,260.345978 91.973145,262.219330 92.329071,262.584137 
	C95.114784,265.439240 97.255264,269.226471 102.175095,269.056244 
	C108.265053,268.845520 113.050247,266.699371 115.998451,260.569794 
	C115.998451,260.569794 116.056969,260.089447 116.835655,259.675446 
	C116.889771,253.899796 117.053711,248.122177 116.950912,242.349319 
	C116.900749,239.532257 116.353363,236.724075 116.067093,233.999084 
M137.316422,256.105774 
	C136.438187,257.082550 135.559952,258.059296 134.370209,258.952362 
	C134.370209,258.952362 134.099762,259.128174 133.417526,259.056610 
	C132.964355,259.098755 132.511200,259.140930 131.356888,258.753113 
	C130.901428,256.550476 130.145203,254.360428 130.052292,252.142578 
	C129.850784,247.332321 129.888199,242.505157 130.016296,237.689941 
	C130.137466,233.134659 126.427681,233.689880 123.857742,233.085159 
	C121.208260,232.461731 119.939255,233.931778 119.981712,236.737427 
	C120.074684,242.881241 119.990738,249.027527 120.007072,255.172714 
	C120.028221,263.129944 125.937965,268.977081 134.348297,268.947296 
	C140.485275,268.925537 148.372192,263.203857 148.035309,255.213821 
	C147.804504,249.740234 148.071198,244.247101 147.934296,238.767227 
	C147.895477,237.212387 147.220688,235.673401 146.714005,233.263031 
	C145.724457,233.175049 144.735886,233.024658 143.745209,233.009262 
	C137.425522,232.910950 136.641693,233.753830 137.027451,239.838760 
	C137.369156,245.228729 137.619843,250.624451 137.977432,255.987320 
	C137.977432,255.987320 137.942902,255.922684 137.316422,256.105774 
M59.723869,97.834099 
	C60.442326,92.862427 61.160778,87.890762 62.042698,82.612541 
	C62.042698,82.612541 61.999706,82.267799 62.720642,81.832779 
	C63.086716,78.914665 63.452793,75.996559 64.001251,72.243469 
	C64.284843,70.994698 64.819748,69.742950 64.804993,68.497711 
	C64.760391,64.734032 67.339958,60.028473 60.838264,57.710350 
	C55.562004,72.959473 50.365047,87.979401 45.020882,103.758072 
	C43.980335,106.628754 42.932667,109.496880 41.900524,112.370575 
	C38.140961,122.837967 34.453587,133.332062 30.586737,143.759628 
	C29.517790,146.642197 30.349554,147.902054 33.232376,147.948547 
	C37.723637,148.020981 42.266068,148.346359 46.683136,147.769989 
	C48.269020,147.563049 50.474506,145.250839 50.830341,143.568115 
	C53.398540,131.423096 55.564644,119.193039 57.991684,106.168388 
	C58.290192,103.764435 58.588696,101.360474 59.044983,98.629745 
	C59.044983,98.629745 59.004829,98.269096 59.723869,97.834099 
M180.008316,290.849365 
	C180.008316,293.390533 180.008316,295.931702 180.008316,298.472870 
	C180.566269,298.682281 181.124222,298.891693 181.682175,299.101135 
	C182.794800,297.770782 183.907440,296.440460 185.793228,294.728271 
	C186.184692,291.433960 186.576172,288.139648 187.606445,285.154022 
	C190.523026,289.393066 193.285339,293.755280 196.487335,297.766510 
	C197.122330,298.562012 199.444458,298.010712 201.794739,297.701416 
	C202.198074,291.597870 202.747650,285.497894 202.895370,279.388153 
	C202.929581,277.973633 201.591202,276.525940 200.287842,274.949005 
	C199.885483,275.002319 199.483109,275.055603 198.484390,275.048279 
	C198.263153,275.367493 198.041916,275.686676 197.110901,276.475189 
	C197.110901,280.593719 197.110901,284.712280 197.110901,289.256897 
	C192.583588,285.013794 188.825439,281.491577 185.017181,277.164612 
	C184.283295,276.444366 183.651169,275.376434 182.781052,275.121796 
	C182.165009,274.941528 180.592163,275.793488 180.537857,276.301300 
	C180.229904,279.181427 180.250870,282.096710 180.020676,285.825500 
	C180.066452,287.216919 180.112244,288.608337 180.008316,290.849365 
M106.984177,301.957092 
	C106.984177,301.957092 106.953003,301.905487 107.752144,301.950775 
	C108.485970,301.033112 109.729034,300.184387 109.864311,299.185669 
	C110.411880,295.142761 110.404472,291.021881 111.004715,286.989716 
	C111.770309,281.846741 109.119110,280.561646 104.795723,280.957184 
	C102.865623,281.133759 100.404541,281.017181 99.181953,282.129761 
	C97.329849,283.815186 95.516403,286.345367 95.196266,288.720154 
	C94.738747,292.113953 94.103569,296.317383 99.076233,298.653015 
	C98.142242,299.601501 97.208244,300.549988 95.888382,301.890320 
	C97.048073,302.217316 98.019760,302.491333 99.744385,302.933624 
	C102.237389,303.323944 104.920227,305.092285 106.984177,301.957092 
M227.654770,291.934174 
	C230.760269,292.686066 233.865753,293.437927 236.947571,294.891724 
	C237.366440,298.415100 238.866226,299.522308 242.230469,297.726654 
	C243.466187,298.101562 244.701889,298.476471 246.866623,298.976501 
	C251.514481,298.290161 256.551697,300.407623 260.909760,297.634308 
	C260.924255,296.996460 260.938782,296.358582 260.953308,295.720734 
	C257.372559,295.472534 253.791809,295.224365 250.043045,294.054749 
	C250.033478,289.611145 250.134827,285.163239 249.962234,280.725952 
	C249.888519,278.830933 249.243301,276.958099 248.168457,274.919495 
	C247.467575,274.973267 246.766708,275.027039 245.238205,275.213867 
	C244.828369,276.710449 244.118805,278.196411 244.065216,279.705658 
	C243.907700,284.142212 244.127274,288.593384 243.922714,293.026123 
	C243.876358,294.030426 242.711304,294.983093 241.994217,295.167114 
	C239.540100,287.997772 237.430466,280.651367 232.034241,274.456696 
	C230.688782,275.987976 229.832260,276.962799 228.295242,278.182587 
	C226.574783,281.784485 224.854324,285.386414 223.000549,289.731903 
	C222.656998,290.458221 222.344498,291.201294 221.964081,291.907745 
	C220.802216,294.065430 217.883072,296.629517 221.412201,298.486755 
	C225.552582,300.665680 224.333817,295.438599 226.639816,293.932098 
	C226.738449,293.597321 226.837082,293.262512 227.091354,292.624054 
	C227.091354,292.624054 227.032990,292.287811 227.654770,291.934174 
M138.450195,286.078796 
	C138.450195,286.078796 138.880539,286.083252 138.991989,286.877045 
	C139.738205,289.835327 140.092621,292.981689 141.386292,295.677216 
	C142.095261,297.154480 144.292389,298.326141 146.019516,298.695465 
	C146.667618,298.834076 147.884903,296.310974 149.172592,294.325134 
	C150.317017,292.533569 151.461456,290.742035 152.605881,288.950500 
	C154.341263,292.932251 149.490845,298.037598 157.777908,298.686920 
	C158.187927,296.810455 159.008041,294.917328 158.932449,293.060638 
	C158.688065,287.056641 158.114517,281.066040 157.630539,274.570282 
	C155.644318,275.086823 153.904068,275.539398 151.864029,276.614014 
	C151.348328,277.356659 150.604446,278.030914 150.357864,278.854156 
	C149.464752,281.835632 148.738602,284.867096 147.313431,288.098907 
	C146.622940,288.930145 145.932449,289.761414 145.244949,290.589050 
	C144.114182,288.892212 143.132263,287.418701 142.032654,285.230652 
	C141.041992,283.447540 140.051331,281.664429 138.993164,279.061829 
	C139.244370,276.579865 138.638504,274.342194 135.687408,275.163269 
	C134.219513,275.571655 132.283630,277.580078 132.171204,278.992920 
	C131.751984,284.262024 131.863571,289.590149 132.092941,294.882385 
	C132.150909,296.219971 133.384293,297.506592 134.864365,298.946014 
	C135.575363,297.523346 136.611435,296.168793 136.927078,294.663208 
	C137.513916,291.864014 137.680756,288.976746 138.450195,286.078796 
M166.943604,288.995636 
	C169.558319,288.982147 172.186905,289.118683 174.780731,288.879059 
	C175.774948,288.787170 176.689789,287.836517 177.640808,287.277191 
	C176.639359,286.502960 175.735367,285.289185 174.617203,285.041199 
	C171.842209,284.425720 168.969437,284.251221 166.025192,283.133087 
	C166.383972,281.445465 166.742737,279.757812 167.996368,278.006256 
	C170.954468,278.006256 173.912567,278.006256 176.870651,278.006256 
	C176.868805,277.318390 176.866943,276.630554 176.865082,275.942688 
	C173.259598,275.942688 169.654114,275.942688 165.655396,275.270996 
	C163.082779,274.575500 161.970444,275.710327 162.001556,278.220093 
	C162.045990,281.806396 162.115662,285.392395 162.020981,289.874115 
	C162.362503,292.758850 162.092438,295.924896 163.247238,298.435547 
	C164.105911,300.302368 175.983276,298.750519 178.561615,296.252441 
	C175.892776,295.768036 173.726929,294.902710 171.659332,295.094788 
	C166.874405,295.539337 165.165482,293.668671 166.080627,289.029083 
	C166.080627,289.029083 166.040466,289.084686 166.943604,288.995636 
M114.206490,293.709747 
	C117.924713,300.193634 126.013954,301.422546 129.505524,296.034882 
	C126.276550,295.011139 123.047569,293.987396 120.234955,292.305054 
	C121.379990,292.204010 122.553551,292.229004 123.664536,291.977509 
	C126.615845,291.309479 127.758850,288.915680 128.070831,286.339478 
	C128.229431,285.029877 127.628868,283.027954 126.652458,282.288574 
	C123.052124,279.562317 116.818863,280.749298 114.860046,284.874695 
	C113.766922,287.176880 114.331635,290.266266 114.206490,293.709747 
M65.999664,85.770027 
	C66.085899,90.409225 65.632332,95.134789 66.358177,99.671654 
	C68.663063,114.078354 71.352165,128.425156 74.053497,142.764847 
	C74.387444,144.537552 75.596390,147.511276 76.561798,147.577774 
	C82.885368,148.013336 89.253487,147.802078 96.553749,147.802078 
	C89.033401,126.763939 81.932816,106.900085 74.998672,86.217796 
	C73.725098,82.300850 72.514503,78.361145 71.115776,74.489418 
	C70.883568,73.846680 69.567940,72.953079 69.208702,73.125412 
	C68.321815,73.550858 67.190750,74.450256 67.061485,75.297081 
	C66.575745,78.479271 66.451385,81.716621 65.999664,85.770027 
M91.388771,40.013374 
	C88.381393,39.354530 85.388382,38.619366 82.364128,38.050171 
	C69.848450,35.694569 57.331940,33.340740 44.793907,31.108875 
	C42.469101,30.695044 40.043556,30.847139 36.689133,30.693314 
	C46.541115,38.568638 55.334312,45.568130 64.094582,52.608597 
	C72.735825,59.553413 81.282990,66.616638 89.983467,73.486015 
	C98.563065,80.259964 107.283058,86.856087 115.941460,93.530228 
	C116.338287,93.107750 116.735115,92.685272 117.131943,92.262794 
	C114.111641,82.430489 111.091339,72.598183 107.864044,62.092003 
	C119.649834,58.578476 131.376709,55.082516 143.103577,51.586555 
	C143.084152,51.076962 143.064713,50.567368 143.045273,50.057774 
	C135.614822,48.608597 128.182983,47.166420 120.754250,45.708488 
	C111.258972,43.844982 101.766182,41.968769 91.388771,40.013374 
M205.039871,142.665894 
	C203.319351,146.660568 204.411194,148.388107 208.951660,148.030060 
	C212.586578,147.743408 216.277817,147.770218 219.916473,148.035721 
	C224.193619,148.347778 225.521118,146.344879 226.107147,142.375122 
	C227.452835,133.258987 229.758591,124.270821 230.831009,115.131714 
	C232.054016,104.709190 236.711121,94.449249 232.963242,83.701599 
	C232.351685,81.947830 231.343262,80.332458 230.518265,78.653130 
	C229.793579,78.659393 229.068893,78.665665 228.344208,78.671936 
	C220.185455,99.570686 213.019730,120.850853 205.039871,142.665894 
z"/>
<path fill="#52A9E0" opacity="1.000000" stroke="none" 
	d="
M164.087967,177.067581 
	C163.387955,183.095734 162.687927,189.123901 161.569778,195.678955 
	C159.716843,201.402832 158.282059,206.599808 156.847260,211.796799 
	C154.676025,206.297287 153.226227,200.827789 151.992035,195.310059 
	C148.759781,180.859665 145.840118,166.335876 142.389481,151.938721 
	C138.280457,134.794556 133.586121,117.790794 129.465836,100.649162 
	C127.338837,91.800179 125.786064,82.804642 124.266144,73.825844 
	C123.981422,72.143867 124.506866,69.374886 125.662758,68.593857 
	C128.178818,66.893776 131.425095,66.322174 134.215546,64.965652 
	C136.550720,63.830463 138.662399,62.235516 140.873032,60.844147 
	C140.873032,60.844147 140.948166,60.886433 141.307602,60.986637 
	C142.439148,61.062542 143.211243,61.038242 144.249329,61.265602 
	C150.519714,61.180229 156.305435,60.177475 161.506348,56.060585 
	C166.328354,55.024178 170.676849,53.513638 175.120300,53.143845 
	C178.552368,52.858219 181.196793,52.125866 183.018417,49.163834 
	C183.018417,49.163834 183.443695,49.022949 184.089294,49.006172 
	C195.861694,45.973778 207.001968,43.006699 218.111160,39.927559 
	C227.425827,37.345814 236.704224,34.633305 245.950089,32.336945 
	C244.796844,33.765594 243.872772,35.233459 242.554031,35.832619 
	C238.431320,37.705750 236.572769,40.467323 237.709778,45.152687 
	C232.033218,48.904240 226.372894,52.142456 221.379883,56.201500 
	C218.088745,58.876987 212.815842,59.725807 212.056091,65.099518 
	C212.056091,65.099518 212.016190,65.023888 211.692444,65.022751 
	C210.595016,65.715614 209.821350,66.409615 209.047684,67.103607 
	C209.047684,67.103615 209.018021,67.031570 208.667419,67.020981 
	C204.754074,66.906731 202.765457,68.727470 202.065628,72.123764 
	C202.065628,72.123764 202.034042,72.044441 201.695129,72.037743 
	C199.591904,73.394714 197.827591,74.758377 196.063263,76.122040 
	C196.063263,76.122032 196.031555,76.044792 195.664780,76.030579 
	C193.052429,76.828720 190.622116,77.331177 188.607986,78.531784 
	C186.081818,80.037636 184.134079,82.622055 181.518204,83.847992 
	C174.900803,86.949234 173.158813,92.301460 172.917923,99.004707 
	C172.749588,103.688461 171.675476,108.339661 170.593185,113.007927 
	C166.170685,114.361046 165.613892,118.675446 169.020554,122.384453 
	C169.010422,123.508339 168.998795,124.257568 168.608810,125.014969 
	C163.503296,125.814423 164.240067,130.205795 163.468796,133.165329 
	C163.149841,134.389160 165.751358,136.374084 167.023376,138.455078 
	C165.856155,147.918900 164.505936,156.922379 163.614441,165.971054 
	C163.255051,169.618942 163.900055,173.365784 164.087967,177.067581 
z"/>
<path fill="#56A9DC" opacity="1.000000" stroke="none" 
	d="
M91.830551,40.055702 
	C101.766182,41.968769 111.258972,43.844982 120.754250,45.708488 
	C128.182983,47.166420 135.614822,48.608597 143.045273,50.057774 
	C143.064713,50.567368 143.084152,51.076962 143.103577,51.586555 
	C131.376709,55.082516 119.649834,58.578476 107.864044,62.092003 
	C111.091339,72.598183 114.111641,82.430489 117.131943,92.262794 
	C116.735115,92.685272 116.338287,93.107750 115.941460,93.530228 
	C107.283058,86.856087 98.563065,80.259964 89.983467,73.486015 
	C81.282990,66.616638 72.735825,59.553413 64.094582,52.608597 
	C55.334312,45.568130 46.541115,38.568638 36.689133,30.693314 
	C40.043556,30.847139 42.469101,30.695044 44.793907,31.108875 
	C57.331940,33.340740 69.848450,35.694569 82.364128,38.050171 
	C85.388382,38.619366 88.381393,39.354530 91.830551,40.055702 
z"/>
<path fill="#52A8DE" opacity="1.000000" stroke="none" 
	d="
M104.055763,161.156815 
	C101.229309,165.078049 98.821396,169.401688 95.504623,172.851517 
	C80.392471,188.569901 57.559315,191.188080 38.890026,181.362946 
	C37.337631,180.545975 36.049992,179.225922 34.168598,177.815369 
	C33.464294,177.260025 33.185352,177.118149 32.861019,177.065506 
	C32.861019,177.065506 32.942631,177.048462 32.943184,176.704010 
	C32.678593,172.569275 30.552961,170.927231 26.862078,171.092560 
	C26.862078,171.092560 26.941446,171.073486 26.830124,170.867950 
	C26.427347,170.460602 26.135891,170.258789 25.844439,170.056976 
	C25.844440,170.056976 25.924463,170.065231 25.938652,169.721893 
	C24.584433,167.614838 23.216021,165.851089 21.847612,164.087341 
	C21.847614,164.087341 21.928776,164.064941 21.948177,163.667542 
	C21.338388,158.591370 23.125748,156.678391 28.068180,156.925690 
	C35.357948,157.290390 42.678822,157.033325 50.104527,157.418732 
	C54.593597,159.323441 58.952007,160.640274 63.483246,157.023697 
	C75.569687,157.278442 87.191643,157.787628 98.805283,157.640549 
	C101.988708,157.600235 103.510384,158.154739 104.055763,161.156815 
M53.282032,182.587219 
	C59.790638,183.226517 66.410133,185.002380 73.663567,180.747955 
	C71.660156,179.872772 70.699539,179.100555 69.727844,179.086380 
	C63.796555,178.999710 57.861874,179.045944 51.931217,179.177780 
	C51.376854,179.190109 50.842579,180.106262 50.298981,180.602753 
	C51.041111,181.167679 51.783245,181.732605 53.282032,182.587219 
z"/>
<path fill="#51A8DF" opacity="1.000000" stroke="none" 
	d="
M210.924652,178.076309 
	C210.924652,178.076309 210.465820,178.009598 210.088623,177.755615 
	C209.468628,177.263672 209.178787,177.121765 208.841904,177.075912 
	C208.841904,177.075912 208.925446,177.064926 208.940216,176.706970 
	C209.180450,171.987564 206.342484,171.169952 202.868744,171.087799 
	C202.868744,171.087799 202.956940,171.039734 202.954666,170.705811 
	C201.256882,168.272598 199.561356,166.173340 197.865845,164.074066 
	C197.865845,164.074066 197.945297,164.039307 197.955704,163.663147 
	C197.862213,161.362198 197.758316,159.437424 197.659256,157.602310 
	C198.219742,157.367477 198.519669,157.132172 198.820068,157.131561 
	C222.738876,157.083191 246.658859,156.934006 270.575256,157.159454 
	C273.891693,157.190704 278.120605,157.108917 279.880249,161.414597 
	C279.880249,161.414597 279.763702,161.731979 279.286133,161.610474 
	C276.856720,164.319290 274.904877,167.149612 272.630920,170.134521 
	C269.829956,171.620285 265.722076,171.779541 267.879517,176.446060 
	C267.879517,176.446060 267.755402,176.766449 267.248993,176.622116 
	C264.914124,177.082306 263.064819,177.630966 261.261383,178.302689 
	C257.159637,179.830475 253.080383,181.418671 248.973602,182.591339 
	C248.061890,181.461517 247.213120,180.150314 246.267960,180.076691 
	C240.107651,179.596970 233.927170,179.259613 227.751266,179.223450 
	C226.831345,179.218079 225.900711,181.042694 224.578217,182.018188 
	C221.152893,180.872208 218.154465,179.637100 215.081711,178.628448 
	C213.776260,178.199951 212.315063,178.245956 210.924652,178.076309 
z"/>
<path fill="#59AADD" opacity="1.000000" stroke="none" 
	d="
M261.897919,122.154434 
	C261.897919,122.154434 262.051941,122.390686 261.980042,122.882721 
	C262.241302,123.962196 262.574432,124.549629 262.907593,125.137054 
	C262.907593,125.137054 263.053314,125.392159 262.957611,125.927101 
	C263.270020,127.623329 263.678101,128.784622 264.086182,129.945908 
	C266.195587,135.273560 268.305023,140.601196 270.602051,146.402664 
	C263.667664,148.888565 257.142090,148.617050 250.841156,147.044540 
	C249.441040,146.695114 248.407471,142.963821 248.055283,140.659698 
	C246.527344,130.663712 245.539734,120.582901 243.915100,110.604652 
	C242.616013,102.625809 240.681213,94.750473 239.327103,86.113373 
	C238.850128,79.721771 238.046783,74.049614 237.310562,68.368744 
	C236.926956,65.408905 236.025665,62.078091 240.864532,61.993683 
	C241.865265,65.157532 242.791397,68.347298 243.879852,71.480675 
	C248.233215,84.012764 252.636993,96.527321 257.006775,109.767929 
	C257.352234,110.993011 257.713043,111.498543 258.073822,112.004066 
	C258.073822,112.004066 258.008331,111.985107 257.954437,112.346191 
	C258.904633,114.886101 259.908752,117.064926 260.912872,119.243744 
	C260.912872,119.243744 261.056305,119.424561 260.985046,119.889206 
	C261.241852,120.954041 261.569885,121.554237 261.897919,122.154434 
z"/>
<path fill="#5BABDD" opacity="1.000000" stroke="none" 
	d="
M205.253983,142.324341 
	C213.019730,120.850853 220.185455,99.570686 228.344208,78.671936 
	C229.068893,78.665665 229.793579,78.659393 230.518265,78.653130 
	C231.343262,80.332458 232.351685,81.947830 232.963242,83.701599 
	C236.711121,94.449249 232.054016,104.709190 230.831009,115.131714 
	C229.758591,124.270821 227.452835,133.258987 226.107147,142.375122 
	C225.521118,146.344879 224.193619,148.347778 219.916473,148.035721 
	C216.277817,147.770218 212.586578,147.743408 208.951660,148.030060 
	C204.411194,148.388107 203.319351,146.660568 205.253983,142.324341 
z"/>
<path fill="#5BABDC" opacity="1.000000" stroke="none" 
	d="
M74.832237,87.036232 
	C81.932816,106.900085 89.033401,126.763939 96.553749,147.802078 
	C89.253487,147.802078 82.885368,148.013336 76.561798,147.577774 
	C75.596390,147.511276 74.387444,144.537552 74.053497,142.764847 
	C71.352165,128.425156 68.663063,114.078354 66.358177,99.671654 
	C65.632332,95.134789 66.085899,90.409225 66.431213,85.237343 
	C67.708565,82.039436 68.554359,79.374214 69.596840,76.089233 
	C71.542511,80.157547 73.187370,83.596893 74.832237,87.036232 
z"/>
<path fill="#5AA9D8" opacity="1.000000" stroke="none" 
	d="
M146.837555,234.127151 
	C147.220688,235.673401 147.895477,237.212387 147.934296,238.767227 
	C148.071198,244.247101 147.804504,249.740234 148.035309,255.213821 
	C148.372192,263.203857 140.485275,268.925537 134.348297,268.947296 
	C125.937965,268.977081 120.028221,263.129944 120.007072,255.172714 
	C119.990738,249.027527 120.074684,242.881241 119.981712,236.737427 
	C119.939255,233.931778 121.208260,232.461731 123.857742,233.085159 
	C126.427681,233.689880 130.137466,233.134659 130.016296,237.689941 
	C129.888199,242.505157 129.850784,247.332321 130.052292,252.142578 
	C130.145203,254.360428 130.901428,256.550476 131.883545,259.137238 
	C132.973389,259.390289 133.536575,259.259216 134.099762,259.128174 
	C134.099762,259.128174 134.370209,258.952362 134.931076,259.046997 
	C136.308929,258.068634 137.125916,256.995667 137.942902,255.922684 
	C137.942902,255.922684 137.977432,255.987320 138.287445,255.750183 
	C138.730194,250.220612 139.243317,244.902161 138.883972,239.643356 
	C138.553604,234.809204 140.507965,233.410034 144.850067,234.015366 
	C145.505020,234.106674 146.174698,234.092529 146.837555,234.127151 
z"/>
<path fill="#5FAAD7" opacity="1.000000" stroke="none" 
	d="
M175.052185,237.869400 
	C175.765549,235.063568 177.662964,233.035980 180.424698,233.358536 
	C183.224106,233.685501 186.644318,233.500702 188.118027,237.203094 
	C188.935013,239.255615 190.421875,241.041504 191.992279,243.567642 
	C195.945816,236.899567 199.108902,228.869308 209.091766,234.927948 
	C205.321762,241.501038 201.188263,248.058624 197.792496,254.978241 
	C196.593170,257.422211 197.092514,260.747498 197.008621,263.675934 
	C196.941879,266.005615 196.894104,268.213837 193.710724,267.958099 
	C191.064850,267.745605 187.863358,267.453094 188.107834,263.914062 
	C188.770569,254.319962 182.221771,247.950485 177.722183,240.717682 
	C176.818848,241.004501 176.400848,241.011871 175.991150,241.009796 
	C175.999451,241.000366 175.986206,241.015884 175.856995,240.709198 
	C175.502594,239.558136 175.277390,238.713776 175.052185,237.869400 
M197.907181,240.542007 
	C197.159286,242.715988 196.411392,244.889969 195.663498,247.063950 
	C196.397751,247.350189 197.132004,247.636414 197.866241,247.922638 
	C199.632202,244.625626 201.398148,241.328598 203.164093,238.031570 
	C202.697754,237.649155 202.231430,237.266739 201.765091,236.884323 
	C200.637802,237.909439 199.510498,238.934555 197.907181,240.542007 
z"/>
<path fill="#6AADD3" opacity="1.000000" stroke="none" 
	d="
M140.495468,60.907875 
	C138.662399,62.235516 136.550720,63.830463 134.215546,64.965652 
	C131.425095,66.322174 128.178818,66.893776 125.662758,68.593857 
	C124.506866,69.374886 123.981422,72.143867 124.266144,73.825844 
	C125.786064,82.804642 127.338837,91.800179 129.465836,100.649162 
	C133.586121,117.790794 138.280457,134.794556 142.389481,151.938721 
	C145.840118,166.335876 148.759781,180.859665 151.992035,195.310059 
	C153.226227,200.827789 154.676025,206.297287 156.847260,211.796799 
	C158.282059,206.599808 159.716843,201.402832 161.503174,196.099091 
	C160.733292,204.259048 159.611877,212.525772 158.490463,220.792480 
	C157.871368,220.887451 157.252274,220.982437 156.633179,221.077408 
	C155.480392,217.883911 154.017487,214.764648 153.231842,211.483261 
	C150.672501,200.794037 148.439606,190.027115 145.937378,179.323685 
	C140.344437,155.399658 134.646759,131.500137 129.027740,107.582169 
	C126.178368,95.453461 123.533997,83.274651 120.509132,71.190529 
	C119.774559,68.255966 120.552589,67.608978 123.185654,66.834320 
	C128.909271,65.150421 134.482941,62.956841 140.495468,60.907875 
z"/>
<path fill="#4DAAE3" opacity="1.000000" stroke="none" 
	d="
M161.043671,258.150360 
	C161.019150,258.867493 160.994629,259.584656 160.581436,260.726257 
	C159.455048,262.426880 158.717331,263.703064 157.570679,264.984985 
	C155.802216,264.979767 154.442673,264.968842 153.068161,264.492188 
	C153.046036,258.233643 152.921158,252.437729 153.075226,246.649216 
	C153.169861,243.093582 153.691315,239.549316 154.412872,236.059769 
	C156.421478,236.368851 158.235687,237.217361 159.620239,236.761337 
	C164.990799,234.992493 169.337952,236.300018 173.250519,240.140411 
	C173.860840,240.739471 175.059570,240.739075 175.986206,241.015884 
	C175.986206,241.015884 175.999451,241.000366 175.991394,241.442978 
	C176.117508,245.501770 175.978119,248.737000 173.075806,251.789230 
	C170.146500,254.869873 171.932571,259.189636 176.116028,260.936615 
	C176.116028,260.936615 176.019836,260.994995 176.023773,261.339478 
	C175.865768,265.816498 173.626663,265.834229 171.291016,263.607880 
	C169.442108,261.845520 168.456100,259.210480 166.796310,257.203247 
	C165.974396,256.209290 164.468491,255.192230 163.326874,255.250992 
	C162.518173,255.292633 161.801437,257.120056 161.043671,258.150360 
M162.007111,248.973022 
	C162.007111,248.973022 162.053802,248.896042 162.369934,249.565231 
	C165.478745,252.267426 168.749268,251.281860 170.263428,248.386353 
	C171.069366,246.845184 169.747192,242.824753 168.155518,241.756912 
	C166.341782,240.540115 161.957123,240.318100 160.869064,241.565109 
	C159.464798,243.174591 158.164322,247.078781 162.007111,248.973022 
z"/>
<path fill="#5BAADB" opacity="1.000000" stroke="none" 
	d="
M115.860428,261.034210 
	C113.050247,266.699371 108.265053,268.845520 102.175095,269.056244 
	C97.255264,269.226471 95.114784,265.439240 92.329071,262.584137 
	C91.973145,262.219330 92.324615,260.345978 92.781410,260.142212 
	C95.325592,259.007202 97.480125,256.349670 100.929863,258.293610 
	C102.218437,259.019714 104.169319,258.570465 106.366013,258.197632 
	C107.300453,252.148315 107.687103,246.558456 108.313812,240.709290 
	C109.048004,238.377274 109.542152,236.304581 110.405701,234.174957 
	C111.518936,234.143356 112.262756,234.168655 113.106087,234.548645 
	C113.802292,236.368179 114.888878,237.825699 114.910896,239.299118 
	C115.006241,245.682312 114.745255,252.070114 114.741936,258.456329 
	C114.741493,259.315430 115.469658,260.174896 115.860428,261.034210 
z"/>
<path fill="#6AADD3" opacity="1.000000" stroke="none" 
	d="
M171.005936,113.005402 
	C171.675476,108.339661 172.749588,103.688461 172.917923,99.004707 
	C173.158813,92.301460 174.900803,86.949234 181.518204,83.847992 
	C184.134079,82.622055 186.081818,80.037636 188.607986,78.531784 
	C190.622116,77.331177 193.052429,76.828720 195.704987,76.041840 
	C191.571838,79.390633 187.326447,83.275879 182.398773,85.860260 
	C178.423630,87.945076 176.769867,90.921928 176.185913,94.750130 
	C174.644928,104.852287 173.434265,115.004311 171.979340,125.120262 
	C170.411758,136.019409 168.654510,146.891342 167.100098,157.792282 
	C166.206863,164.056351 165.551834,170.354385 164.438766,176.852356 
	C163.900055,173.365784 163.255051,169.618942 163.614441,165.971054 
	C164.505936,156.922379 165.856155,147.918900 167.280228,138.161240 
	C168.021286,133.285736 168.504211,129.146271 168.987152,125.006790 
	C168.998795,124.257568 169.010422,123.508339 169.174683,122.043900 
	C169.886841,118.554253 170.446396,115.779831 171.005936,113.005402 
z"/>
<path fill="#6FAED5" opacity="1.000000" stroke="none" 
	d="
M57.858173,106.989929 
	C55.564644,119.193039 53.398540,131.423096 50.830341,143.568115 
	C50.474506,145.250839 48.269020,147.563049 46.683136,147.769989 
	C42.266068,148.346359 37.723637,148.020981 33.232376,147.948547 
	C30.349554,147.902054 29.517790,146.642197 30.586737,143.759628 
	C34.453587,133.332062 38.140961,122.837967 41.900524,112.370575 
	C42.932667,109.496880 43.980335,106.628754 45.398819,103.378609 
	C46.182526,102.998405 46.588303,102.997658 46.945244,103.366653 
	C42.562832,115.771873 38.187263,127.792480 33.914864,139.849640 
	C32.015530,145.209763 32.605415,145.962387 38.187351,146.004776 
	C40.509186,146.022415 42.943520,146.425476 45.114521,145.851181 
	C46.602791,145.457474 48.483784,143.888718 48.871273,142.482162 
	C50.134995,137.894852 50.844639,133.149857 51.673191,128.448929 
	C52.815193,121.969536 53.871258,115.474991 54.981876,108.657990 
	C55.545135,107.519562 56.090652,106.710083 56.799461,106.126007 
	C57.261227,106.564255 57.559700,106.777092 57.858173,106.989929 
z"/>
<path fill="#6AADD3" opacity="1.000000" stroke="none" 
	d="
M245.998688,31.978697 
	C236.704224,34.633305 227.425827,37.345814 218.111160,39.927559 
	C207.001968,43.006699 195.861694,45.973778 184.311707,48.979500 
	C191.302658,46.317673 198.640549,43.422718 206.147507,41.066444 
	C220.049286,36.702976 234.031052,32.589775 248.017929,28.503916 
	C254.458755,26.622427 260.990265,25.051424 268.528564,23.063261 
	C266.825745,30.156912 261.401886,31.128628 257.390198,33.990898 
	C256.976410,33.972786 256.863312,33.848347 256.971924,33.533920 
	C258.357422,31.476719 259.634308,29.733944 260.911194,27.991169 
	C260.651337,27.671822 260.391510,27.352474 260.131653,27.033127 
	C255.420654,28.681652 250.709671,30.330177 245.998688,31.978697 
z"/>
<path fill="#6FAFCF" opacity="1.000000" stroke="none" 
	d="
M91.990112,297.867371 
	C87.791115,297.876160 83.592110,297.884949 79.127991,297.258240 
	C78.545845,296.421021 78.228828,296.219269 77.911812,296.017517 
	C77.911812,296.017517 77.982811,296.020844 78.027237,295.638519 
	C77.731422,291.877472 77.391197,288.498779 77.050972,285.120056 
	C80.290649,283.239014 83.530327,281.357941 86.769997,279.476898 
	C87.191742,279.870972 87.613480,280.265015 88.035225,280.659088 
	C88.035225,279.383484 88.035225,278.107910 88.402031,276.350342 
	C89.178864,275.291992 89.588898,274.715576 89.998924,274.139160 
	C90.165695,274.088654 90.332458,274.038116 90.792519,274.388916 
	C91.750534,275.173706 92.415260,275.557220 93.079987,275.940735 
	C93.079987,275.940735 92.993042,275.966492 92.957977,276.285767 
	C92.953987,276.838226 92.985054,277.071381 93.016121,277.304535 
	C93.016121,277.304535 93.073380,277.630371 92.697609,278.084717 
	C92.211266,284.981873 92.100693,291.424622 91.990112,297.867371 
M88.006035,294.000427 
	C88.006035,294.000427 87.913734,294.016266 88.575394,293.529938 
	C88.724159,291.744049 89.039368,289.953217 88.986572,288.173309 
	C88.881081,284.616058 86.713669,283.230835 83.423065,284.444489 
	C79.773438,285.790558 79.192383,289.517212 82.009583,292.995117 
	C82.009583,292.995117 82.015823,292.913452 82.174355,293.527557 
	C82.562172,293.680908 82.949989,293.834259 83.630127,293.906616 
	C83.630127,293.906616 83.893417,294.057251 84.268936,294.698883 
	C85.511688,294.434998 86.754440,294.171112 88.006035,294.000427 
z"/>
<path fill="#71B1D4" opacity="1.000000" stroke="none" 
	d="
M185.067291,277.969360 
	C188.825439,281.491577 192.583588,285.013794 197.110901,289.256897 
	C197.110901,284.712280 197.110901,280.593719 197.721802,276.156250 
	C198.582062,275.594513 198.831406,275.351715 199.080750,275.108917 
	C199.483109,275.055603 199.885483,275.002319 200.601746,275.483582 
	C200.939972,283.372253 200.964279,290.726379 200.988586,298.080505 
	C199.444458,298.010712 197.122330,298.562012 196.487335,297.766510 
	C193.285339,293.755280 190.523026,289.393066 187.261185,284.709198 
	C186.314255,283.600494 185.712601,282.936615 185.084045,282.182953 
	C185.057129,282.093170 184.948929,281.940094 184.839630,281.753265 
	C184.531616,281.349487 184.295059,281.187988 184.007324,280.730804 
	C184.351746,279.576263 184.709518,278.772827 185.067291,277.969360 
z"/>
<path fill="#70B0D7" opacity="1.000000" stroke="none" 
	d="
M46.994076,102.996918 
	C46.588303,102.997658 46.182526,102.998405 45.472420,102.999237 
	C50.365047,87.979401 55.562004,72.959473 60.838264,57.710350 
	C67.339958,60.028473 64.760391,64.734032 64.804993,68.497711 
	C64.819748,69.742950 64.284843,70.994698 63.551975,72.779358 
	C62.735035,76.299423 62.367367,79.283615 61.999702,82.267799 
	C61.999706,82.267799 62.042698,82.612541 61.697609,82.782089 
	C61.007797,83.020279 60.663071,83.088913 60.030346,82.936203 
	C60.204704,78.727859 60.667068,74.740875 61.129429,70.753883 
	C60.496719,70.617828 59.864006,70.481781 59.231297,70.345734 
	C58.469086,72.221703 57.615005,74.066353 56.962555,75.979744 
	C55.260956,80.969872 53.647675,85.990112 51.716156,91.146454 
	C50.971684,92.198822 50.510235,93.103081 50.035316,94.337601 
	C50.009220,95.108238 49.996586,95.548607 49.722481,96.213707 
	C48.638695,98.624596 47.816387,100.810753 46.994076,102.996918 
z"/>
<path fill="#6FABCB" opacity="1.000000" stroke="none" 
	d="
M98.794090,298.043274 
	C94.103569,296.317383 94.738747,292.113953 95.196266,288.720154 
	C95.516403,286.345367 97.329849,283.815186 99.181953,282.129761 
	C100.404541,281.017181 102.865623,281.133759 104.795723,280.957184 
	C109.119110,280.561646 111.770309,281.846741 111.004715,286.989716 
	C110.404472,291.021881 110.411880,295.142761 109.864311,299.185669 
	C109.729034,300.184387 108.485970,301.033112 107.306183,301.559601 
	C106.405472,300.118103 106.084892,298.264709 105.471748,298.162231 
	C103.299881,297.799316 101.028046,298.034668 98.794090,298.043274 
M101.025040,293.533203 
	C101.380341,293.675446 101.735641,293.817688 102.011971,293.988922 
	C102.011971,293.988922 102.002213,293.905365 102.311798,294.592743 
	C103.961250,295.064240 105.610703,295.535736 107.894600,296.188568 
	C107.894600,292.845245 108.114655,290.214935 107.797958,287.650970 
	C107.648819,286.443573 106.625214,284.606659 105.715553,284.418243 
	C104.590721,284.185303 103.172501,285.368958 101.614548,286.096802 
	C101.614548,286.096802 101.317780,286.011017 100.541740,286.176453 
	C98.860458,288.603546 97.126015,291.035645 101.100243,292.996735 
	C101.100243,292.996735 101.042450,292.911469 101.025040,293.533203 
z"/>
<path fill="#70B0D7" opacity="1.000000" stroke="none" 
	d="
M147.949463,287.879700 
	C148.738602,284.867096 149.464752,281.835632 150.357864,278.854156 
	C150.604446,278.030914 151.348328,277.356659 152.434814,276.305542 
	C156.039581,275.564209 157.133179,276.879883 157.055191,279.913208 
	C156.893234,286.212952 156.994308,292.519470 156.987259,298.823181 
	C149.490845,298.037598 154.341263,292.932251 152.605881,288.950500 
	C151.461456,290.742035 150.317017,292.533569 148.689575,294.706757 
	C147.332031,295.256226 146.457504,295.424072 145.575333,295.593384 
	C146.446014,292.764465 147.197754,290.322083 147.949463,287.879700 
z"/>
<path fill="#68A7CD" opacity="1.000000" stroke="none" 
	d="
M248.991989,182.982315 
	C253.080383,181.418671 257.159637,179.830475 261.261383,178.302689 
	C263.064819,177.630966 264.914124,177.082306 267.087524,176.680725 
	C257.904480,184.155014 247.188400,187.481247 235.178284,187.035599 
	C226.288879,186.705734 218.407074,183.841400 211.091644,178.386322 
	C212.315063,178.245956 213.776260,178.199951 215.081711,178.628448 
	C218.154465,179.637100 221.152893,180.872208 224.586182,182.012207 
	C224.990982,182.008698 224.981979,182.022491 225.069153,182.369202 
	C226.443573,183.122406 227.730820,183.528900 229.460785,183.947357 
	C232.268188,183.974991 234.632874,183.990677 237.245056,184.251892 
	C238.996674,184.335281 240.500793,184.173126 242.402466,184.009140 
	C244.864014,183.665634 246.927994,183.323975 248.991989,182.982315 
z"/>
<path fill="#6AADD3" opacity="1.000000" stroke="none" 
	d="
M212.416748,65.061859 
	C212.815842,59.725807 218.088745,58.876987 221.379883,56.201500 
	C226.372894,52.142456 232.033218,48.904240 238.052521,45.106197 
	C239.361526,44.443516 240.019791,43.979103 240.695969,43.542461 
	C245.977585,40.131989 249.792252,34.273865 256.863312,33.848347 
	C256.863312,33.848347 256.976410,33.972786 257.033051,34.034931 
	C254.329575,36.287251 251.688507,38.651245 248.788574,40.637234 
	C236.827591,48.828617 224.788071,56.905331 212.416748,65.061859 
z"/>
<path fill="#72ADCC" opacity="1.000000" stroke="none" 
	d="
M114.149277,293.000916 
	C114.331635,290.266266 113.766922,287.176880 114.860046,284.874695 
	C116.818863,280.749298 123.052124,279.562317 126.652458,282.288574 
	C127.628868,283.027954 128.229431,285.029877 128.070831,286.339478 
	C127.758850,288.915680 126.615845,291.309479 123.664536,291.977509 
	C122.553551,292.229004 121.379990,292.204010 119.730835,292.488739 
	C117.534233,292.781921 115.841759,292.891418 114.149277,293.000916 
M121.329987,286.461426 
	C122.039963,286.574036 122.749939,286.686615 123.459908,286.799225 
	C123.483261,286.602386 123.506615,286.405579 123.529968,286.208771 
	C122.963264,286.154297 122.396553,286.099823 121.329987,286.461426 
z"/>
<path fill="#6CA8C8" opacity="1.000000" stroke="none" 
	d="
M49.986446,157.041077 
	C42.678822,157.033325 35.357948,157.290390 28.068180,156.925690 
	C23.125748,156.678391 21.338388,158.591370 21.940372,163.708893 
	C20.687765,161.543762 19.462366,158.939835 19.042751,156.178864 
	C48.279202,156.023193 76.709862,156.024612 105.140526,156.026031 
	C107.437492,156.961243 107.416061,157.203751 104.383415,161.020828 
	C103.510384,158.154739 101.988708,157.600235 98.805283,157.640549 
	C87.191643,157.787628 75.569687,157.278442 63.018494,157.010437 
	C58.052898,157.016586 54.019672,157.028839 49.986446,157.041077 
z"/>
<path fill="#6AA7C6" opacity="1.000000" stroke="none" 
	d="
M280.149902,161.256409 
	C278.120605,157.108917 273.891693,157.190704 270.575256,157.159454 
	C246.658859,156.934006 222.738876,157.083191 198.820068,157.131561 
	C198.519669,157.132172 198.219742,157.367477 197.659256,157.602310 
	C197.758316,159.437424 197.862213,161.362198 197.944427,163.705017 
	C196.361053,161.520859 194.799347,158.918671 194.007782,156.192184 
	C223.464233,156.062195 252.150528,156.056519 280.836823,156.050842 
	C280.697754,157.733292 280.558655,159.415756 280.149902,161.256409 
z"/>
<path fill="#6FB2D7" opacity="1.000000" stroke="none" 
	d="
M241.934769,297.122803 
	C238.866226,299.522308 237.366440,298.415100 236.992828,294.137268 
	C235.336456,292.579193 233.581207,291.864685 231.976685,290.899628 
	C231.640366,290.697357 231.859024,289.572388 232.180450,288.902069 
	C233.477615,288.447601 234.416260,287.963623 235.354904,287.479645 
	C234.380692,285.663818 233.526352,283.768890 232.395905,282.056183 
	C231.418777,280.575775 230.127914,279.302460 228.975754,277.937592 
	C229.832260,276.962799 230.688782,275.987976 232.034241,274.456696 
	C237.430466,280.651367 239.540100,287.997772 242.002808,295.854736 
	C241.985855,296.735809 241.960312,296.929291 241.934769,297.122803 
z"/>
<path fill="#6DACCA" opacity="1.000000" stroke="none" 
	d="
M250.211060,294.976196 
	C253.791809,295.224365 257.372559,295.472534 260.953308,295.720734 
	C260.938782,296.358582 260.924255,296.996460 260.909760,297.634308 
	C256.551697,300.407623 251.514481,298.290161 246.426392,298.455261 
	C246.012711,290.316315 246.039261,282.698578 246.065826,275.080811 
	C246.766708,275.027039 247.467575,274.973267 248.494690,275.460480 
	C248.841309,279.744568 248.703629,283.497559 248.936203,287.227417 
	C249.098267,289.826721 249.768082,292.394409 250.211060,294.976196 
z"/>
<path fill="#62A3CB" opacity="1.000000" stroke="none" 
	d="
M69.033440,297.845123 
	C63.104263,300.434570 59.390579,298.257111 58.972069,292.062622 
	C58.830177,289.962402 58.007252,287.873932 58.087315,285.802979 
	C58.161926,283.872925 59.022808,281.973206 59.537567,280.060150 
	C60.244518,280.078369 60.951469,280.096588 61.658421,280.114807 
	C62.108955,283.781464 62.559494,287.448151 62.747108,291.683655 
	C62.922993,293.417694 63.361797,294.582855 63.800606,295.748047 
	C64.857277,295.131897 65.913948,294.515717 66.970619,293.899567 
	C66.970619,293.899567 66.976181,293.993317 67.191010,294.158356 
	C68.365150,293.955048 69.324471,293.586700 70.283783,293.218384 
	C69.840538,292.709076 69.397285,292.199768 68.954033,291.690460 
	C68.954033,291.690460 68.867805,291.526337 69.069595,291.017822 
	C69.185966,290.207031 69.100563,289.904785 69.015160,289.602570 
	C69.015160,289.602570 68.896080,289.335297 69.299347,289.195679 
	C69.983063,287.018860 70.263519,284.981659 70.857635,283.083618 
	C71.829926,283.827698 72.488541,284.432617 73.171295,285.357605 
	C73.182739,286.105164 73.170052,286.532654 72.879242,287.192505 
	C71.255836,290.844849 74.400566,295.802124 69.033440,297.845123 
z"/>
<path fill="#C6EDFC" opacity="1.000000" stroke="none" 
	d="
M280.740662,155.617676 
	C252.150528,156.056519 223.464233,156.062195 194.295471,156.046997 
	C194.648178,155.684311 195.483414,155.043701 196.318466,155.043961 
	C224.427139,155.053101 252.535812,155.123245 280.740662,155.617676 
z"/>
<path fill="#C6EDFC" opacity="1.000000" stroke="none" 
	d="
M104.927567,155.631119 
	C76.709862,156.024612 48.279202,156.023193 19.371561,156.028931 
	C19.553759,155.693268 20.213215,155.050247 20.872074,155.050858 
	C48.819622,155.076767 76.767113,155.160019 104.927567,155.631119 
z"/>
<path fill="#67A2BD" opacity="1.000000" stroke="none" 
	d="
M166.126205,289.080353 
	C165.165482,293.668671 166.874405,295.539337 171.659332,295.094788 
	C173.726929,294.902710 175.892776,295.768036 178.561615,296.252441 
	C175.983276,298.750519 164.105911,300.302368 163.247238,298.435547 
	C162.092438,295.924896 162.362503,292.758850 162.492798,289.430664 
	C164.018463,289.018280 165.072342,289.049316 166.126205,289.080353 
z"/>
<path fill="#9DCEED" opacity="1.000000" stroke="none" 
	d="
M134.077560,298.816650 
	C133.384293,297.506592 132.150909,296.219971 132.092941,294.882385 
	C131.863571,289.590149 131.751984,284.262024 132.171204,278.992920 
	C132.283630,277.580078 134.219513,275.571655 135.687408,275.163269 
	C138.638504,274.342194 139.244370,276.579865 138.889435,279.744568 
	C138.189804,280.973053 137.593903,281.518799 136.604599,282.099396 
	C135.476257,283.589050 134.208984,285.008148 134.108704,286.505402 
	C133.835052,290.591522 134.053848,294.710632 134.077560,298.816650 
z"/>
<path fill="#62A8D2" opacity="1.000000" stroke="none" 
	d="
M161.419571,258.111115 
	C161.801437,257.120056 162.518173,255.292633 163.326874,255.250992 
	C164.468491,255.192230 165.974396,256.209290 166.796310,257.203247 
	C168.456100,259.210480 169.442108,261.845520 171.291016,263.607880 
	C173.626663,265.834229 175.865768,265.816498 176.048325,261.288879 
	C177.090851,262.664551 178.112778,264.435303 179.114838,266.171661 
	C173.956482,269.643738 169.883514,268.613098 166.909454,263.804352 
	C165.583023,261.659607 163.522720,259.968719 161.419571,258.111115 
z"/>
<path fill="#71B2D7" opacity="1.000000" stroke="none" 
	d="
M147.631454,287.989319 
	C147.197754,290.322083 146.446014,292.764465 145.575333,295.593384 
	C146.457504,295.424072 147.332031,295.256226 148.524628,295.044891 
	C147.884903,296.310974 146.667618,298.834076 146.019516,298.695465 
	C144.292389,298.326141 142.095261,297.154480 141.386292,295.677216 
	C140.092621,292.981689 139.738205,289.835327 139.343964,286.453949 
	C140.514084,286.002319 141.332214,285.973755 142.150345,285.945221 
	C143.132263,287.418701 144.114182,288.892212 145.244949,290.589050 
	C145.932449,289.761414 146.622940,288.930145 147.631454,287.989319 
z"/>
<path fill="#80B5D6" opacity="1.000000" stroke="none" 
	d="
M240.835022,61.651516 
	C236.025665,62.078091 236.926956,65.408905 237.310562,68.368744 
	C238.046783,74.049614 238.850128,79.721771 239.387009,85.683243 
	C237.765762,79.519524 236.366226,73.073654 235.011002,66.618469 
	C234.614395,64.729301 234.343796,62.813667 233.960617,60.592396 
	C235.399353,59.846634 236.925568,59.055523 238.720978,58.124878 
	C239.429657,59.207500 240.117569,60.258427 240.835022,61.651516 
z"/>
<path fill="#79B9D7" opacity="1.000000" stroke="none" 
	d="
M228.635498,278.060089 
	C230.127914,279.302460 231.418777,280.575775 232.395905,282.056183 
	C233.526352,283.768890 234.380692,285.663818 235.354904,287.479645 
	C234.416260,287.963623 233.477615,288.447601 232.235992,288.516602 
	C231.784775,286.787262 231.636551,285.472900 231.488327,284.158539 
	C230.969147,284.049347 230.449966,283.940125 229.930786,283.830933 
	C228.938171,285.891144 227.945557,287.951355 226.624939,289.965576 
	C225.242599,289.609161 224.188232,289.298737 223.133865,288.988312 
	C224.854324,285.386414 226.574783,281.784485 228.635498,278.060089 
z"/>
<path fill="#76ACD3" opacity="1.000000" stroke="none" 
	d="
M114.177887,293.355347 
	C115.841759,292.891418 117.534233,292.781921 119.522659,292.818054 
	C123.047569,293.987396 126.276550,295.011139 129.505676,296.034424 
	C126.013954,301.422546 117.924713,300.193634 114.177887,293.355347 
z"/>
<path fill="#B7E0F7" opacity="1.000000" stroke="none" 
	d="
M50.942436,276.079407 
	C52.326473,276.244232 54.574738,275.973114 54.921700,276.661041 
	C55.743538,278.290436 55.833435,280.368622 55.905781,282.277252 
	C56.006859,284.943878 56.072735,287.658325 55.684380,290.282898 
	C55.349064,292.548981 54.595409,294.847687 53.503300,296.845947 
	C53.201176,297.398712 51.030457,296.930237 49.717072,296.930359 
	C49.884975,296.333466 50.052879,295.736603 50.848473,295.377686 
	C51.645336,289.085938 51.814518,282.556213 51.722576,276.023865 
	C51.288448,276.040619 51.115444,276.060028 50.942436,276.079407 
z"/>
<path fill="#62A8D2" opacity="1.000000" stroke="none" 
	d="
M175.856995,240.709198 
	C175.059570,240.739075 173.860840,240.739471 173.250519,240.140411 
	C169.337952,236.300018 164.990799,234.992493 159.620239,236.761337 
	C158.235687,237.217361 156.421478,236.368851 154.507584,235.824066 
	C154.455109,235.085434 154.699692,234.642334 155.403748,234.143417 
	C160.523041,234.076996 165.182846,234.066376 169.842667,234.055756 
	C171.484467,235.122620 173.126282,236.189484 174.910141,237.562866 
	C175.277390,238.713776 175.502594,239.558136 175.856995,240.709198 
z"/>
<path fill="#C6EDFC" opacity="1.000000" stroke="none" 
	d="
M169.757141,233.619049 
	C165.182846,234.066376 160.523041,234.076996 154.990570,234.087677 
	C153.394226,235.436935 152.064636,236.776794 152.043686,238.136795 
	C151.891235,248.038269 152.002121,257.943787 152.029770,267.848053 
	C151.684875,266.921143 151.046356,265.996216 151.040039,265.067017 
	C150.968964,254.619568 150.995071,244.171432 150.995071,233.182343 
	C157.248596,233.182343 163.460098,233.182343 169.757141,233.619049 
z"/>
<path fill="#B7E0F7" opacity="1.000000" stroke="none" 
	d="
M108.073761,240.968613 
	C107.687103,246.558456 107.300453,252.148315 106.549622,257.884338 
	C106.108276,251.933670 106.009560,245.837021 105.959671,239.739944 
	C105.903931,232.926331 105.923325,232.918106 112.752289,233.005295 
	C113.736206,233.017853 114.718567,233.151443 115.534973,233.637329 
	C114.581055,234.095062 113.793816,234.144501 113.006584,234.193954 
	C112.262756,234.168655 111.518936,234.143356 110.016113,234.179443 
	C108.862671,236.483429 108.468208,238.726028 108.073761,240.968613 
z"/>
<path fill="#55A6D7" opacity="1.000000" stroke="none" 
	d="
M166.103424,289.054718 
	C165.072342,289.049316 164.018463,289.018280 162.569580,288.982910 
	C162.115662,285.392395 162.045990,281.806396 162.001556,278.220093 
	C161.970444,275.710327 163.082779,274.575500 165.872223,275.919556 
	C166.426529,277.068817 166.764023,277.569489 167.101517,278.070190 
	C166.742737,279.757812 166.383972,281.445465 165.836044,283.743225 
	C165.778091,285.930481 165.909286,287.507568 166.040466,289.084686 
	C166.040466,289.084686 166.080627,289.029083 166.103424,289.054718 
z"/>
<path fill="#62A3CB" opacity="1.000000" stroke="none" 
	d="
M134.470963,298.881348 
	C134.053848,294.710632 133.835052,290.591522 134.108704,286.505402 
	C134.208984,285.008148 135.476257,283.589050 136.757675,282.416748 
	C137.543579,283.841522 137.783005,284.983856 138.022446,286.126160 
	C137.680756,288.976746 137.513916,291.864014 136.927078,294.663208 
	C136.611435,296.168793 135.575363,297.523346 134.470963,298.881348 
z"/>
<path fill="#6AADD3" opacity="1.000000" stroke="none" 
	d="
M182.606323,49.085411 
	C181.196793,52.125866 178.552368,52.858219 175.120300,53.143845 
	C170.676849,53.513638 166.328354,55.024178 161.455414,56.006828 
	C160.971863,55.970070 160.869705,55.862850 160.911438,55.688972 
	C160.953156,55.515099 160.974594,55.158119 160.974594,55.158119 
	C168.047806,53.107742 175.121033,51.057365 182.606323,49.085411 
z"/>
<path fill="#B1DDF5" opacity="1.000000" stroke="none" 
	d="
M245.652008,275.147339 
	C246.039261,282.698578 246.012711,290.316315 245.961884,298.392700 
	C244.701889,298.476471 243.466187,298.101562 242.082611,297.424744 
	C241.960312,296.929291 241.985855,296.735809 242.036285,296.250916 
	C242.711304,294.983093 243.876358,294.030426 243.922714,293.026123 
	C244.127274,288.593384 243.907700,284.142212 244.065216,279.705658 
	C244.118805,278.196411 244.828369,276.710449 245.652008,275.147339 
z"/>
<path fill="#80B5D6" opacity="1.000000" stroke="none" 
	d="
M166.492035,289.040161 
	C165.909286,287.507568 165.778091,285.930481 165.891418,284.126465 
	C168.969437,284.251221 171.842209,284.425720 174.617203,285.041199 
	C175.735367,285.289185 176.639359,286.502960 177.640808,287.277191 
	C176.689789,287.836517 175.774948,288.787170 174.780731,288.879059 
	C172.186905,289.118683 169.558319,288.982147 166.492035,289.040161 
z"/>
<path fill="#C5E8F2" opacity="1.000000" stroke="none" 
	d="
M74.915451,86.627014 
	C73.187370,83.596893 71.542511,80.157547 69.596840,76.089233 
	C68.554359,79.374214 67.708565,82.039436 66.527191,84.818985 
	C66.451385,81.716621 66.575745,78.479271 67.061485,75.297081 
	C67.190750,74.450256 68.321815,73.550858 69.208702,73.125412 
	C69.567940,72.953079 70.883568,73.846680 71.115776,74.489418 
	C72.514503,78.361145 73.725098,82.300850 74.915451,86.627014 
z"/>
<path fill="#62A8D2" opacity="1.000000" stroke="none" 
	d="
M176.072433,260.559387 
	C171.932571,259.189636 170.146500,254.869873 173.075806,251.789230 
	C175.978119,248.737000 176.117508,245.501770 175.983093,241.452423 
	C176.400848,241.011871 176.818848,241.004501 177.550232,240.992996 
	C178.164261,245.222565 178.372131,249.178970 175.064484,252.876358 
	C173.997269,254.069336 175.630798,257.678375 176.072433,260.559387 
z"/>
<path fill="#7AAFCC" opacity="1.000000" stroke="none" 
	d="
M223.067200,289.360107 
	C224.188232,289.298737 225.242599,289.609161 226.614883,290.346497 
	C226.966217,291.278198 226.999603,291.783020 227.032990,292.287811 
	C227.032990,292.287811 227.091354,292.624054 226.750977,292.734314 
	C226.311569,293.276642 226.212509,293.708679 226.113464,294.140747 
	C224.333817,295.438599 225.552582,300.665680 221.412201,298.486755 
	C217.883072,296.629517 220.802216,294.065430 221.964081,291.907745 
	C222.344498,291.201294 222.656998,290.458221 223.067200,289.360107 
z"/>
<path fill="#9DCBEA" opacity="1.000000" stroke="none" 
	d="
M157.382584,298.755066 
	C156.994308,292.519470 156.893234,286.212952 157.055191,279.913208 
	C157.133179,276.879883 156.039581,275.564209 152.584702,275.994537 
	C153.904068,275.539398 155.644318,275.086823 157.630539,274.570282 
	C158.114517,281.066040 158.688065,287.056641 158.932449,293.060638 
	C159.008041,294.917328 158.187927,296.810455 157.382584,298.755066 
z"/>
<path fill="#C5E8F2" opacity="1.000000" stroke="none" 
	d="
M98.935165,298.348145 
	C101.028046,298.034668 103.299881,297.799316 105.471748,298.162231 
	C106.084892,298.264709 106.405472,300.118103 106.906616,301.536957 
	C106.953003,301.905487 106.984177,301.957092 106.537544,301.878326 
	C103.724426,302.121460 101.357933,302.443390 98.991447,302.765320 
	C98.019760,302.491333 97.048073,302.217316 95.888382,301.890320 
	C97.208244,300.549988 98.142242,299.601501 98.935165,298.348145 
z"/>
<path fill="#9DCBEA" opacity="1.000000" stroke="none" 
	d="
M185.042236,277.566986 
	C184.709518,278.772827 184.351746,279.576263 184.119629,280.914978 
	C184.432007,281.682190 184.666550,281.845490 184.948929,281.940094 
	C184.948929,281.940094 185.057129,282.093170 185.063873,282.468140 
	C185.019867,283.225403 184.969147,283.607697 184.601807,284.144958 
	C182.910080,284.533264 181.534988,284.766632 180.159882,285.000031 
	C180.250870,282.096710 180.229904,279.181427 180.537857,276.301300 
	C180.592163,275.793488 182.165009,274.941528 182.781052,275.121796 
	C183.651169,275.376434 184.283295,276.444366 185.042236,277.566986 
z"/>
<path fill="#68A7CD" opacity="1.000000" stroke="none" 
	d="
M213.998138,298.022369 
	C213.397324,298.223114 212.796509,298.423859 212.092377,297.868958 
	C211.998810,291.073608 212.008560,285.033905 212.344788,278.995605 
	C213.106842,278.996490 213.542435,278.995972 213.983704,279.463989 
	C213.992325,285.962494 213.995224,291.992432 213.998138,298.022369 
z"/>
<path fill="#6AADD3" opacity="1.000000" stroke="none" 
	d="
M161.022797,56.023827 
	C156.305435,60.177475 150.519714,61.180229 144.256683,60.979687 
	C143.979706,60.252472 143.961334,60.062828 143.942978,59.873184 
	C143.942978,59.873184 143.954926,59.951393 144.233124,60.011169 
	C145.026123,59.742065 145.540924,59.413185 146.055725,59.084297 
	C146.055725,59.084293 146.362183,58.921883 146.879578,59.005180 
	C147.960037,58.754486 148.523117,58.420498 149.086182,58.086510 
	C149.086182,58.086510 149.378174,57.929348 149.904648,58.022923 
	C151.298782,57.782875 152.166443,57.449253 153.034103,57.115635 
	C153.034103,57.115635 153.374573,56.948112 153.973755,57.023842 
	C156.671860,56.687328 158.770782,56.275089 160.869705,55.862846 
	C160.869705,55.862850 160.971863,55.970070 161.022797,56.023827 
z"/>
<path fill="#67A3C1" opacity="1.000000" stroke="none" 
	d="
M152.358002,267.913330 
	C152.002121,257.943787 151.891235,248.038269 152.043686,238.136795 
	C152.064636,236.776794 153.394226,235.436935 154.531097,234.143494 
	C154.699692,234.642334 154.455109,235.085434 154.115814,235.764236 
	C153.691315,239.549316 153.169861,243.093582 153.075226,246.649216 
	C152.921158,252.437729 153.046036,258.233643 153.163925,264.781311 
	C153.520355,266.302094 153.766068,267.068054 154.011780,267.833984 
	C153.569931,267.882202 153.128098,267.930420 152.358002,267.913330 
z"/>
<path fill="#9DCBEA" opacity="1.000000" stroke="none" 
	d="
M185.020081,295.110138 
	C183.907440,296.440460 182.794800,297.770782 181.682175,299.101135 
	C181.124222,298.891693 180.566269,298.682281 180.008316,298.472870 
	C180.008316,295.931702 180.008316,293.390533 180.476440,290.425232 
	C182.255676,290.003235 183.566772,290.005341 184.905548,290.386047 
	C184.906494,291.522980 184.879745,292.281342 184.734039,293.132782 
	C184.455154,293.530182 184.534576,293.774353 184.897552,294.245972 
	C184.967850,294.725739 184.993973,294.917938 185.020081,295.110138 
z"/>
<path fill="#B7E0F7" opacity="1.000000" stroke="none" 
	d="
M227.343872,292.110992 
	C226.999603,291.783020 226.966217,291.278198 226.942871,290.392456 
	C227.945557,287.951355 228.938171,285.891144 229.930786,283.830933 
	C230.449966,283.940125 230.969147,284.049347 231.488327,284.158539 
	C231.636551,285.472900 231.784775,286.787262 231.877472,288.487122 
	C231.859024,289.572388 231.640366,290.697357 231.976685,290.899628 
	C233.581207,291.864685 235.336456,292.579193 237.004669,293.786316 
	C233.865753,293.437927 230.760269,292.686066 227.343872,292.110992 
z"/>
<path fill="#6FAED5" opacity="1.000000" stroke="none" 
	d="
M59.004829,98.269096 
	C59.004829,98.269096 59.044983,98.629745 58.714424,99.017921 
	C57.912037,100.612946 57.440205,101.819794 56.613682,102.933075 
	C54.441875,97.166275 57.274261,92.582870 59.813881,88.339668 
	C59.582340,91.930969 59.293583,95.100029 59.004829,98.269096 
z"/>
<path fill="#BEE5F9" opacity="1.000000" stroke="none" 
	d="
M146.775787,233.695099 
	C146.174698,234.092529 145.505020,234.106674 144.850067,234.015366 
	C140.507965,233.410034 138.553604,234.809204 138.883972,239.643356 
	C139.243317,244.902161 138.730194,250.220612 138.254089,255.765350 
	C137.619843,250.624451 137.369156,245.228729 137.027451,239.838760 
	C136.641693,233.753830 137.425522,232.910950 143.745209,233.009262 
	C144.735886,233.024658 145.724457,233.175049 146.775787,233.695099 
z"/>
<path fill="#67A3C1" opacity="1.000000" stroke="none" 
	d="
M113.106087,234.548645 
	C113.793816,234.144501 114.581055,234.095062 115.761223,234.004150 
	C116.154160,233.962677 116.067093,233.999084 116.020645,234.429016 
	C116.001778,243.269119 116.029373,251.679291 116.056969,260.089447 
	C116.056969,260.089447 115.998451,260.569794 115.929443,260.802002 
	C115.469658,260.174896 114.741493,259.315430 114.741936,258.456329 
	C114.745255,252.070114 115.006241,245.682312 114.910896,239.299118 
	C114.888878,237.825699 113.802292,236.368179 113.106087,234.548645 
z"/>
<path fill="#D0F2FC" opacity="1.000000" stroke="none" 
	d="
M73.157364,286.960144 
	C73.170052,286.532654 73.182739,286.105164 73.380417,285.078613 
	C73.695160,283.550995 73.824913,282.622498 73.954666,281.693970 
	C74.479050,284.599670 75.003433,287.505402 75.665199,291.172363 
	C75.904327,288.731598 76.074142,286.998322 76.647461,285.192566 
	C77.391197,288.498779 77.731422,291.877472 78.013229,295.671204 
	C77.098595,295.470917 76.242378,294.855652 75.346375,294.211792 
	C75.095573,295.158905 74.868675,296.015778 74.274216,296.528809 
	C73.656898,293.110016 73.407127,290.035095 73.157364,286.960144 
z"/>
<path fill="#82B4D2" opacity="1.000000" stroke="none" 
	d="
M72.879234,287.192505 
	C73.407127,290.035095 73.656898,293.110016 73.948837,296.633392 
	C72.562103,297.385284 71.133194,297.688751 69.368858,297.918671 
	C74.400566,295.802124 71.255836,290.844849 72.879234,287.192505 
z"/>
<path fill="#AFD4ED" opacity="1.000000" stroke="none" 
	d="
M201.391663,297.890961 
	C200.964279,290.726379 200.939972,283.372253 200.900055,275.555817 
	C201.591202,276.525940 202.929581,277.973633 202.895370,279.388153 
	C202.747650,285.497894 202.198074,291.597870 201.391663,297.890961 
z"/>
<path fill="#9DCEED" opacity="1.000000" stroke="none" 
	d="
M184.877869,290.007477 
	C183.566772,290.005341 182.255676,290.003235 180.551300,290.000427 
	C180.112244,288.608337 180.066452,287.216919 180.090271,285.412781 
	C181.534988,284.766632 182.910080,284.533264 184.623535,284.574646 
	C184.933868,286.568726 184.905869,288.288116 184.877869,290.007477 
z"/>
<path fill="#C5E8F2" opacity="1.000000" stroke="none" 
	d="
M116.446312,259.882446 
	C116.029373,251.679291 116.001778,243.269119 116.002609,234.385406 
	C116.353363,236.724075 116.900749,239.532257 116.950912,242.349319 
	C117.053711,248.122177 116.889771,253.899796 116.446312,259.882446 
z"/>
<path fill="#B1DDF5" opacity="1.000000" stroke="none" 
	d="
M92.386818,297.778259 
	C92.100693,291.424622 92.211266,284.981873 92.616081,278.228668 
	C92.868057,284.508545 92.825783,291.098846 92.386818,297.778259 
z"/>
<path fill="#62A3CB" opacity="1.000000" stroke="none" 
	d="
M51.983696,276.026489 
	C51.814518,282.556213 51.645336,289.085938 51.219627,295.379486 
	C50.931393,294.276001 50.899689,293.408722 51.253952,291.922974 
	C51.754513,286.211884 51.869102,281.119171 51.983696,276.026489 
z"/>
<path fill="#B5D9F1" opacity="1.000000" stroke="none" 
	d="
M59.364349,98.051598 
	C59.293583,95.100029 59.582340,91.930969 59.894974,87.946434 
	C60.052021,85.806496 60.185184,84.482018 60.318344,83.157547 
	C60.663071,83.088913 61.007797,83.020279 61.615875,82.935364 
	C61.160778,87.890762 60.442326,92.862427 59.364349,98.051598 
z"/>
<path fill="#67A2BD" opacity="1.000000" stroke="none" 
	d="
M167.548950,278.038208 
	C166.764023,277.569489 166.426529,277.068817 166.068832,276.255402 
	C169.654114,275.942688 173.259598,275.942688 176.865082,275.942688 
	C176.866943,276.630554 176.868805,277.318390 176.870651,278.006256 
	C173.912567,278.006256 170.954468,278.006256 167.548950,278.038208 
z"/>
<path fill="#6AA7C6" opacity="1.000000" stroke="none" 
	d="
M272.953064,169.979935 
	C274.904877,167.149612 276.856720,164.319290 279.128357,161.671112 
	C277.884003,164.482681 276.319855,167.112106 274.153625,169.881577 
	C273.352081,170.007721 273.152588,169.993835 272.953064,169.979935 
z"/>
<path fill="#B1DDF5" opacity="1.000000" stroke="none" 
	d="
M250.127045,294.515472 
	C249.768082,292.394409 249.098267,289.826721 248.936203,287.227417 
	C248.703629,283.497559 248.841309,279.744568 248.839355,275.538330 
	C249.243301,276.958099 249.888519,278.830933 249.962234,280.725952 
	C250.134827,285.163239 250.033478,289.611145 250.127045,294.515472 
z"/>
<path fill="#68A7CD" opacity="1.000000" stroke="none" 
	d="
M272.630920,170.134521 
	C273.152588,169.993835 273.352081,170.007721 273.850525,170.044495 
	C272.225189,172.079422 270.300873,174.091492 268.128052,176.274811 
	C265.722076,171.779541 269.829956,171.620285 272.630920,170.134521 
z"/>
<path fill="#87C4E8" opacity="1.000000" stroke="none" 
	d="
M214.386017,297.818817 
	C213.995224,291.992432 213.992325,285.962494 214.231522,279.450928 
	C214.473633,278.969330 214.969055,278.969452 214.997955,278.997131 
	C215.026871,279.024780 215.085739,279.078949 215.085739,279.078949 
	C214.981796,285.257721 214.877838,291.436493 214.386017,297.818817 
z"/>
<path fill="#9DCBEA" opacity="1.000000" stroke="none" 
	d="
M212.018311,278.994171 
	C212.008560,285.033905 211.998810,291.073608 212.001968,297.586243 
	C211.677505,292.035278 211.340149,286.011383 210.992233,279.502441 
	C210.981674,279.017365 211.025909,278.974304 211.274216,278.968689 
	C211.522522,278.963104 212.018311,278.994171 212.018311,278.994171 
z"/>
<path fill="#80B5D6" opacity="1.000000" stroke="none" 
	d="
M138.236328,286.102478 
	C137.783005,284.983856 137.543579,283.841522 137.151077,282.381866 
	C137.593903,281.518799 138.189804,280.973053 138.923187,280.154297 
	C140.051331,281.664429 141.041992,283.447540 142.091492,285.587952 
	C141.332214,285.973755 140.514084,286.002319 139.288239,286.057068 
	C138.880539,286.083252 138.450195,286.078796 138.236328,286.102478 
z"/>
<path fill="#6AADD3" opacity="1.000000" stroke="none" 
	d="
M202.419556,72.079269 
	C202.765457,68.727470 204.754074,66.906731 208.704987,67.031242 
	C206.986603,68.712990 204.880035,70.373878 202.419556,72.079269 
z"/>
<path fill="#6AA7C6" opacity="1.000000" stroke="none" 
	d="
M197.909363,164.450562 
	C199.561356,166.173340 201.256882,168.272598 202.933319,170.751251 
	C201.260452,169.029449 199.606674,166.928238 197.909363,164.450562 
z"/>
<path fill="#6AA7C6" opacity="1.000000" stroke="none" 
	d="
M203.005997,171.390350 
	C206.342484,171.169952 209.180450,171.987564 208.927170,176.747040 
	C206.980652,175.327652 205.061951,173.510269 203.005997,171.390350 
z"/>
<path fill="#6CA8C8" opacity="1.000000" stroke="none" 
	d="
M27.003258,171.393097 
	C30.552961,170.927231 32.678593,172.569275 32.930000,176.743561 
	C30.992321,175.316254 29.068380,173.504929 27.003258,171.393097 
z"/>
<path fill="#D0F2FC" opacity="1.000000" stroke="none" 
	d="
M70.543968,282.944458 
	C70.263519,284.981659 69.983063,287.018860 69.385818,289.077667 
	C69.142807,286.457703 69.216606,283.816132 69.716255,281.384277 
	C70.276054,282.044128 70.410011,282.494293 70.543968,282.944458 
z"/>
<path fill="#87C4E8" opacity="1.000000" stroke="none" 
	d="
M51.722572,276.023865 
	C51.869102,281.119171 51.754513,286.211884 51.388947,291.626801 
	C51.095963,286.964996 51.053955,281.980988 50.977192,276.538177 
	C51.115444,276.060028 51.288448,276.040619 51.722572,276.023865 
z"/>
<path fill="#D0F2FC" opacity="1.000000" stroke="none" 
	d="
M184.905563,290.386047 
	C184.905869,288.288116 184.933868,286.568726 184.940140,284.419678 
	C184.969147,283.607697 185.019867,283.225403 185.090775,282.557922 
	C185.712601,282.936615 186.314255,283.600494 186.941772,284.554871 
	C186.576172,288.139648 186.184692,291.433960 185.406647,294.919189 
	C184.993973,294.917938 184.967850,294.725739 184.918076,294.016571 
	C184.894409,293.499603 184.852982,293.039673 184.852982,293.039673 
	C184.879745,292.281342 184.906494,291.522980 184.905563,290.386047 
z"/>
<path fill="#62A8D2" opacity="1.000000" stroke="none" 
	d="
M157.979614,264.979248 
	C158.717331,263.703064 159.455048,262.426880 160.509720,261.078552 
	C160.477997,263.235748 160.129303,265.465057 159.391846,267.452332 
	C158.672501,266.482788 158.341904,265.755310 158.005005,265.015106 
	C157.998672,265.002380 157.979630,264.979248 157.979614,264.979248 
z"/>
<path fill="#9DCEED" opacity="1.000000" stroke="none" 
	d="
M205.946259,276.010254 
	C210.860901,275.744843 215.775528,275.479431 220.475800,275.597595 
	C218.513641,275.992188 216.765854,276.003204 214.615967,275.996826 
	C213.143906,275.990417 212.073975,276.001404 210.582977,275.996887 
	C208.756699,275.990967 207.351486,276.000610 205.946259,276.010254 
z"/>
<path fill="#6CA8C8" opacity="1.000000" stroke="none" 
	d="
M215.018082,276.014221 
	C216.765854,276.003204 218.513641,275.992188 220.698822,275.979004 
	C220.998627,276.652252 220.947388,277.873688 220.709000,277.911377 
	C219.473129,278.106750 218.189499,277.999847 216.240021,277.996521 
	C215.372635,277.980286 215.187729,277.965881 215.005035,277.628906 
	C215.010849,276.875610 215.014465,276.444916 215.018082,276.014221 
z"/>
<path fill="#D0F2FC" opacity="1.000000" stroke="none" 
	d="
M66.606468,293.936340 
	C65.913948,294.515717 64.857277,295.131897 63.800606,295.748047 
	C63.361797,294.582855 62.922993,293.417694 62.785599,292.066833 
	C64.138779,292.578491 65.190544,293.275818 66.606468,293.936340 
z"/>
<path fill="#67A2BD" opacity="1.000000" stroke="none" 
	d="
M205.615692,276.174500 
	C207.351486,276.000610 208.756699,275.990967 210.581421,276.315460 
	C211.001144,277.073273 211.001358,277.496948 210.723969,277.954681 
	C210.260300,278.001068 210.074249,278.013397 209.888214,278.025726 
	C208.353851,277.463379 206.819473,276.901062 205.615692,276.174500 
z"/>
<path fill="#6AADD3" opacity="1.000000" stroke="none" 
	d="
M196.413116,76.073723 
	C197.827591,74.758377 199.591904,73.394714 201.735641,72.051208 
	C200.331039,73.389381 198.546997,74.707390 196.413116,76.073723 
z"/>
<path fill="#B5D9F1" opacity="1.000000" stroke="none" 
	d="
M62.360172,82.050293 
	C62.367367,79.283615 62.735035,76.299423 63.460785,73.196838 
	C63.452793,75.996559 63.086716,78.914665 62.360172,82.050293 
z"/>
<path fill="#6CA8C8" opacity="1.000000" stroke="none" 
	d="
M21.900333,164.435760 
	C23.216021,165.851089 24.584433,167.614838 25.925379,169.759872 
	C24.582962,168.355499 23.268009,166.569839 21.900333,164.435760 
z"/>
<path fill="#82B4D2" opacity="1.000000" stroke="none" 
	d="
M70.857635,283.083618 
	C70.410011,282.494293 70.276054,282.044128 70.096176,281.352478 
	C71.240814,281.096344 72.431366,281.081726 73.788300,281.380554 
	C73.824913,282.622498 73.695160,283.550995 73.356277,284.758545 
	C72.488541,284.432617 71.829926,283.827698 70.857635,283.083618 
z"/>
<path fill="#6FABCB" opacity="1.000000" stroke="none" 
	d="
M99.367920,302.849487 
	C101.357933,302.443390 103.724426,302.121460 106.508362,301.871948 
	C104.920227,305.092285 102.237389,303.323944 99.367920,302.849487 
z"/>
<path fill="#AFD4ED" opacity="1.000000" stroke="none" 
	d="
M260.967651,118.843750 
	C259.908752,117.064926 258.904633,114.886101 257.971741,112.316826 
	C259.036102,114.098824 260.029266,116.271286 260.967651,118.843750 
z"/>
<path fill="#62A8D2" opacity="1.000000" stroke="none" 
	d="
M154.380173,267.901947 
	C153.766068,267.068054 153.520355,266.302094 153.178894,265.247040 
	C154.442673,264.968842 155.802216,264.979767 157.570694,264.984985 
	C157.979630,264.979248 157.998672,265.002380 157.876465,265.289062 
	C157.497650,266.334167 157.241043,267.092651 156.984436,267.851105 
	C156.239151,267.890686 155.493851,267.930267 154.380173,267.901947 
z"/>
<path fill="#B5D9F1" opacity="1.000000" stroke="none" 
	d="
M56.968369,103.026634 
	C57.440205,101.819794 57.912037,100.612946 58.635536,99.181305 
	C58.588696,101.360474 58.290192,103.764435 57.924927,106.579163 
	C57.559700,106.777092 57.261227,106.564255 56.893673,105.774429 
	C56.872517,104.473846 56.920441,103.750237 56.968369,103.026634 
z"/>
<path fill="#B7E0F7" opacity="1.000000" stroke="none" 
	d="
M160.911438,55.688972 
	C158.770782,56.275089 156.671860,56.687328 154.162155,57.046227 
	C155.893402,56.339653 158.035416,55.686417 160.576019,55.095650 
	C160.974594,55.158119 160.953156,55.515099 160.911438,55.688972 
z"/>
<path fill="#D0F2FC" opacity="1.000000" stroke="none" 
	d="
M68.690666,291.858826 
	C69.397285,292.199768 69.840538,292.709076 70.283783,293.218384 
	C69.324471,293.586700 68.365150,293.955048 67.171402,294.115662 
	C67.433746,293.281006 67.930527,292.654114 68.690666,291.858826 
z"/>
<path fill="#BEE5F9" opacity="1.000000" stroke="none" 
	d="
M137.629669,256.014221 
	C137.125916,256.995667 136.308929,258.068634 135.086838,259.088806 
	C135.559952,258.059296 136.438187,257.082550 137.629669,256.014221 
z"/>
<path fill="#67A3C1" opacity="1.000000" stroke="none" 
	d="
M157.322327,267.919220 
	C157.241043,267.092651 157.497650,266.334167 157.882782,265.301758 
	C158.341904,265.755310 158.672501,266.482788 159.014404,267.527954 
	C158.570572,267.892883 158.115402,267.940094 157.322327,267.919220 
z"/>
<path fill="#6AADD3" opacity="1.000000" stroke="none" 
	d="
M209.372742,67.051216 
	C209.821350,66.409615 210.595016,65.715614 211.731369,65.040436 
	C211.295288,65.705780 210.496536,66.352303 209.372742,67.051216 
z"/>
<path fill="#AFD4ED" opacity="1.000000" stroke="none" 
	d="
M264.032471,129.558716 
	C263.678101,128.784622 263.270020,127.623329 262.921326,126.069443 
	C263.313446,126.841728 263.646088,128.006622 264.032471,129.558716 
z"/>
<path fill="#B1DDF5" opacity="1.000000" stroke="none" 
	d="
M93.000809,275.652832 
	C92.415260,275.557220 91.750534,275.173706 91.041779,274.467560 
	C91.639046,274.551605 92.280342,274.958282 93.000809,275.652832 
z"/>
<path fill="#B7E0F7" opacity="1.000000" stroke="none" 
	d="
M143.592590,59.941006 
	C143.961334,60.062828 143.979706,60.252472 143.990707,60.728027 
	C143.211243,61.038242 142.439148,61.062542 141.284698,61.023155 
	C141.682312,60.642586 142.462265,60.325706 143.592590,59.941006 
z"/>
<path fill="#B1DDF5" opacity="1.000000" stroke="none" 
	d="
M89.704178,274.137207 
	C89.588898,274.715576 89.178864,275.291992 88.477921,275.918396 
	C88.594475,275.357300 89.001953,274.746277 89.704178,274.137207 
z"/>
<path fill="#B7E0F7" opacity="1.000000" stroke="none" 
	d="
M152.658691,57.063313 
	C152.166443,57.449253 151.298782,57.782875 150.066605,58.058426 
	C150.562485,57.670567 151.422882,57.340778 152.658691,57.063313 
z"/>
<path fill="#B7E0F7" opacity="1.000000" stroke="none" 
	d="
M145.722412,59.039108 
	C145.540924,59.413185 145.026123,59.742065 144.194733,60.001549 
	C144.381805,59.619408 144.885452,59.306660 145.722412,59.039108 
z"/>
<path fill="#B7E0F7" opacity="1.000000" stroke="none" 
	d="
M226.376648,294.036438 
	C226.212509,293.708679 226.311569,293.276642 226.673157,292.886169 
	C226.837082,293.262512 226.738449,293.597321 226.376648,294.036438 
z"/>
<path fill="#B7E0F7" opacity="1.000000" stroke="none" 
	d="
M148.733002,58.036438 
	C148.523117,58.420498 147.960037,58.754486 147.050171,59.036331 
	C147.262192,58.651581 147.820999,58.318974 148.733002,58.036438 
z"/>
<path fill="#AFD4ED" opacity="1.000000" stroke="none" 
	d="
M261.945374,121.784805 
	C261.569885,121.554237 261.241852,120.954041 260.940765,119.995766 
	C261.309418,120.230179 261.651123,120.822678 261.945374,121.784805 
z"/>
<path fill="#BEE5F9" opacity="1.000000" stroke="none" 
	d="
M133.758636,259.092407 
	C133.536575,259.259216 132.973389,259.390289 132.234116,259.352234 
	C132.511200,259.140930 132.964355,259.098755 133.758636,259.092407 
z"/>
<path fill="#AFD4ED" opacity="1.000000" stroke="none" 
	d="
M258.026794,111.675072 
	C257.713043,111.498543 257.352234,110.993011 256.985626,110.153961 
	C257.313110,110.328987 257.646423,110.837532 258.026794,111.675072 
z"/>
<path fill="#AFD4ED" opacity="1.000000" stroke="none" 
	d="
M262.962280,124.771469 
	C262.574432,124.549629 262.241302,123.962196 261.944153,123.019089 
	C262.325714,123.244240 262.671356,123.825066 262.962280,124.771469 
z"/>
<path fill="#9DCBEA" opacity="1.000000" stroke="none" 
	d="
M209.966278,278.283020 
	C210.074249,278.013397 210.260300,278.001068 210.744736,278.218475 
	C211.037369,278.623596 211.031631,278.798950 211.025909,278.974304 
	C211.025909,278.974304 210.981674,279.017365 210.958496,279.039124 
	C210.638321,278.887390 210.341324,278.713867 209.966278,278.283020 
z"/>
<path fill="#D0F2FC" opacity="1.000000" stroke="none" 
	d="
M68.748886,289.800385 
	C69.100563,289.904785 69.185966,290.207031 69.145149,290.964111 
	C68.840157,290.945374 68.661385,290.471771 68.748886,289.800385 
z"/>
<path fill="#87C4E8" opacity="1.000000" stroke="none" 
	d="
M215.002823,277.951477 
	C215.187729,277.965881 215.372635,277.980286 215.835602,278.012848 
	C215.941742,278.331665 215.769821,278.632324 215.341827,279.005981 
	C215.085739,279.078949 215.026871,279.024780 214.994995,278.742249 
	C214.976334,278.290344 214.989578,278.120911 215.002823,277.951477 
z"/>
<path fill="#6CA8C8" opacity="1.000000" stroke="none" 
	d="
M25.934612,170.319748 
	C26.135891,170.258789 26.427347,170.460602 26.831015,170.908752 
	C26.637081,170.964233 26.330935,170.773376 25.934612,170.319748 
z"/>
<path fill="#B1DDF5" opacity="1.000000" stroke="none" 
	d="
M93.273804,277.159210 
	C92.985054,277.071381 92.953987,276.838226 92.995026,276.259399 
	C93.221924,276.280457 93.376701,276.647186 93.273804,277.159210 
z"/>
<path fill="#AFD4ED" opacity="1.000000" stroke="none" 
	d="
M198.782578,275.078613 
	C198.831406,275.351715 198.582062,275.594513 198.076706,275.921570 
	C198.041916,275.686676 198.263153,275.367493 198.782578,275.078613 
z"/>
<path fill="#6CA8C8" opacity="1.000000" stroke="none" 
	d="
M32.956337,177.317200 
	C33.185352,177.118149 33.464294,177.260025 33.842964,177.679199 
	C33.675934,177.767807 33.363792,177.668350 32.956337,177.317200 
z"/>
<path fill="#D0F2FC" opacity="1.000000" stroke="none" 
	d="
M77.989166,296.297119 
	C78.228828,296.219269 78.545845,296.421021 78.939941,296.918060 
	C78.700195,297.001160 78.383362,296.788971 77.989166,296.297119 
z"/>
<path fill="#6AA7C6" opacity="1.000000" stroke="none" 
	d="
M208.944229,177.334106 
	C209.178787,177.121765 209.468628,177.263672 209.865509,177.692703 
	C209.695236,177.786606 209.370895,177.689453 208.944229,177.334106 
z"/>
<path fill="#4EA9E8" opacity="1.000000" stroke="none" 
	d="
M256.971924,33.533920 
	C249.792252,34.273865 245.977585,40.131989 240.695969,43.542461 
	C240.019791,43.979103 239.361526,44.443516 238.352234,44.941563 
	C236.572769,40.467323 238.431320,37.705750 242.554031,35.832619 
	C243.872772,35.233459 244.796844,33.765594 245.950089,32.336948 
	C250.709671,30.330177 255.420654,28.681652 260.131653,27.033127 
	C260.391510,27.352474 260.651337,27.671822 260.911194,27.991169 
	C259.634308,29.733944 258.357422,31.476719 256.971924,33.533920 
z"/>
<path fill="#4AABE7" opacity="1.000000" stroke="none" 
	d="
M168.608795,125.014969 
	C168.504211,129.146271 168.021286,133.285736 167.281509,137.719055 
	C165.751358,136.374084 163.149841,134.389160 163.468796,133.165329 
	C164.240067,130.205795 163.503296,125.814423 168.608795,125.014969 
z"/>
<path fill="#4AABE7" opacity="1.000000" stroke="none" 
	d="
M170.593185,113.007927 
	C170.446396,115.779831 169.886841,118.554253 169.173172,121.669235 
	C165.613892,118.675446 166.170685,114.361046 170.593185,113.007927 
z"/>
<path fill="#4AABE7" opacity="1.000000" stroke="none" 
	d="
M52.903706,182.442383 
	C51.783245,181.732605 51.041111,181.167679 50.298981,180.602753 
	C50.842579,180.106262 51.376854,179.190109 51.931217,179.177780 
	C57.861874,179.045944 63.796555,178.999710 69.727844,179.086380 
	C70.699539,179.100555 71.660156,179.872772 73.663567,180.747955 
	C66.410133,185.002380 59.790638,183.226517 52.903706,182.442383 
z"/>
<path fill="#4BAED5" opacity="1.000000" stroke="none" 
	d="
M50.104527,157.418732 
	C54.019672,157.028839 58.052898,157.016586 62.550873,157.017578 
	C58.952007,160.640274 54.593597,159.323441 50.104527,157.418732 
z"/>
<path fill="#4AABE7" opacity="1.000000" stroke="none" 
	d="
M248.973602,182.591339 
	C246.927994,183.323975 244.864014,183.665634 242.157349,183.757980 
	C240.008987,183.674561 238.503265,183.840469 236.997559,184.006363 
	C234.632874,183.990677 232.268188,183.974991 229.369354,183.606079 
	C227.550812,182.842743 226.266388,182.432617 224.981979,182.022491 
	C224.981979,182.022491 224.990982,182.008698 224.983002,182.014694 
	C225.900711,181.042694 226.831345,179.218079 227.751266,179.223450 
	C233.927170,179.259613 240.107651,179.596970 246.267960,180.076691 
	C247.213120,180.150314 248.061890,181.461517 248.973602,182.591339 
z"/>
<path fill="#4AABE7" opacity="1.000000" stroke="none" 
	d="
M198.145203,240.250839 
	C199.510498,238.934555 200.637802,237.909439 201.765091,236.884323 
	C202.231430,237.266739 202.697754,237.649155 203.164093,238.031570 
	C201.398148,241.328598 199.632202,244.625626 197.866241,247.922638 
	C197.132004,247.636414 196.397751,247.350189 195.663498,247.063950 
	C196.411392,244.889969 197.159286,242.715988 198.145203,240.250839 
z"/>
<path fill="#66ADD8" opacity="1.000000" stroke="none" 
	d="
M162.092010,248.943954 
	C158.164322,247.078781 159.464798,243.174591 160.869064,241.565109 
	C161.957123,240.318100 166.341782,240.540115 168.155518,241.756912 
	C169.747192,242.824753 171.069366,246.845184 170.263428,248.386353 
	C168.749268,251.281860 165.478745,252.267426 162.631012,249.289429 
	C167.538330,249.643387 168.852448,247.573151 167.611679,243.269165 
	C165.760178,243.269165 164.031891,243.269165 162.092010,243.269165 
	C162.092010,245.350479 162.092010,247.147217 162.092010,248.943954 
z"/>
<path fill="#67A3C1" opacity="1.000000" stroke="none" 
	d="
M108.313805,240.709290 
	C108.468208,238.726028 108.862671,236.483429 109.646713,234.236359 
	C109.542152,236.304581 109.048004,238.377274 108.313805,240.709290 
z"/>
<path fill="#53A9DF" opacity="1.000000" stroke="none" 
	d="
M46.945244,103.366653 
	C47.816387,100.810753 48.638695,98.624596 49.997658,96.521164 
	C50.691418,99.336487 50.969025,102.068947 50.972069,104.801720 
	C50.975166,107.585350 51.997448,109.149788 54.964134,108.986938 
	C53.871258,115.474991 52.815193,121.969536 51.673191,128.448929 
	C50.844639,133.149857 50.134995,137.894852 48.871273,142.482162 
	C48.483784,143.888718 46.602791,145.457474 45.114521,145.851181 
	C42.943520,146.425476 40.509186,146.022415 38.187351,146.004776 
	C32.605415,145.962387 32.015530,145.209763 33.914864,139.849640 
	C38.187263,127.792480 42.562832,115.771873 46.945244,103.366653 
z"/>
<path fill="#4BAAE4" opacity="1.000000" stroke="none" 
	d="
M54.981873,108.657990 
	C51.997448,109.149788 50.975166,107.585350 50.972069,104.801720 
	C50.969025,102.068947 50.691418,99.336487 50.259132,96.296432 
	C49.996586,95.548607 50.009220,95.108238 50.364799,94.263924 
	C51.138218,92.906105 51.568695,91.952225 51.999176,90.998344 
	C53.647675,85.990112 55.260956,80.969872 56.962555,75.979744 
	C57.615005,74.066353 58.469086,72.221703 59.231297,70.345734 
	C59.864006,70.481781 60.496719,70.617828 61.129429,70.753883 
	C60.667068,74.740875 60.204704,78.727859 60.030342,82.936203 
	C60.185184,84.482018 60.052021,85.806496 59.837761,87.524200 
	C57.274261,92.582870 54.441875,97.166275 56.613678,102.933075 
	C56.920441,103.750237 56.872517,104.473846 56.730377,105.549026 
	C56.090652,106.710083 55.545135,107.519562 54.981873,108.657990 
z"/>
<path fill="#000000" opacity="1.000000" stroke="none" 
	d="
M83.893417,294.057251 
	C83.893417,294.057251 83.630127,293.906616 83.320938,293.695557 
	C82.679771,293.294128 82.347794,293.103790 82.015823,292.913452 
	C82.015823,292.913452 82.009583,292.995117 82.017479,292.565491 
	C82.028091,291.323059 81.725235,290.315063 82.094765,289.736603 
	C82.962791,288.377716 84.152222,287.224121 85.211571,285.987457 
	C86.139290,287.201782 87.419846,288.294403 87.892700,289.665588 
	C88.340401,290.963837 87.940735,292.554321 87.913734,294.016266 
	C87.913734,294.016266 88.006035,294.000427 87.593414,293.983582 
	C86.084999,293.996948 84.989204,294.027100 83.893417,294.057251 
z"/>
<path fill="#BEE5F9" opacity="1.000000" stroke="none" 
	d="
M88.244568,293.773102 
	C87.940735,292.554321 88.340401,290.963837 87.892700,289.665588 
	C87.419846,288.294403 86.139290,287.201782 85.211571,285.987457 
	C84.152222,287.224121 82.962791,288.377716 82.094765,289.736603 
	C81.725235,290.315063 82.028091,291.323059 82.058243,292.561462 
	C79.192383,289.517212 79.773438,285.790558 83.423065,284.444489 
	C86.713669,283.230835 88.881081,284.616058 88.986572,288.173309 
	C89.039368,289.953217 88.724159,291.744049 88.244568,293.773102 
z"/>
<path fill="#BEE5F9" opacity="1.000000" stroke="none" 
	d="
M84.081177,294.378052 
	C84.989204,294.027100 86.084999,293.996948 87.588989,293.937012 
	C86.754440,294.171112 85.511688,294.434998 84.081177,294.378052 
z"/>
<path fill="#BEE5F9" opacity="1.000000" stroke="none" 
	d="
M82.095085,293.220520 
	C82.347794,293.103790 82.679771,293.294128 83.174774,293.736053 
	C82.949989,293.834259 82.562172,293.680908 82.095085,293.220520 
z"/>
<path fill="#9DCEED" opacity="1.000000" stroke="none" 
	d="
M184.839630,281.753265 
	C184.666550,281.845490 184.432007,281.682190 184.132980,281.266052 
	C184.295059,281.187988 184.531616,281.349487 184.839630,281.753265 
z"/>
<path fill="#53A9DF" opacity="1.000000" stroke="none" 
	d="
M51.716156,91.146454 
	C51.568695,91.952225 51.138218,92.906105 50.378262,93.933662 
	C50.510235,93.103081 50.971684,92.198822 51.716156,91.146454 
z"/>
<path fill="#000000" opacity="1.000000" stroke="none" 
	d="
M101.317780,286.011017 
	C101.317780,286.011017 101.614548,286.096802 102.191574,286.061066 
	C105.852257,285.441528 106.046196,287.185394 106.033569,289.635834 
	C106.018608,292.537018 105.495827,294.498718 102.002213,293.905365 
	C102.002213,293.905365 102.011971,293.988922 101.987190,293.708191 
	C101.655754,293.255432 101.349106,293.083466 101.042450,292.911469 
	C101.042450,292.911469 101.100243,292.996735 101.070381,292.532318 
	C101.132942,290.048950 101.225365,288.029968 101.317780,286.011017 
z"/>
<path fill="#BFECFC" opacity="1.000000" stroke="none" 
	d="
M102.157005,294.249054 
	C105.495827,294.498718 106.018608,292.537018 106.033569,289.635834 
	C106.046196,287.185394 105.852257,285.441528 102.324814,285.982971 
	C103.172501,285.368958 104.590721,284.185303 105.715553,284.418243 
	C106.625214,284.606659 107.648819,286.443573 107.797958,287.650970 
	C108.114655,290.214935 107.894600,292.845245 107.894600,296.188568 
	C105.610703,295.535736 103.961250,295.064240 102.157005,294.249054 
z"/>
<path fill="#BFECFC" opacity="1.000000" stroke="none" 
	d="
M100.929764,286.093750 
	C101.225365,288.029968 101.132942,290.048950 101.107552,292.496674 
	C97.126015,291.035645 98.860458,288.603546 100.929764,286.093750 
z"/>
<path fill="#BFECFC" opacity="1.000000" stroke="none" 
	d="
M101.033745,293.222351 
	C101.349106,293.083466 101.655754,293.255432 102.026680,293.693665 
	C101.735641,293.817688 101.380341,293.675446 101.033745,293.222351 
z"/>
<path fill="#51A8DF" opacity="1.000000" stroke="none" 
	d="
M237.245056,184.251892 
	C238.503265,183.840469 240.008987,183.674561 241.759811,183.759827 
	C240.500793,184.173126 238.996674,184.335281 237.245056,184.251892 
z"/>
<path fill="#51A8DF" opacity="1.000000" stroke="none" 
	d="
M225.069153,182.369202 
	C226.266388,182.432617 227.550812,182.842743 228.926636,183.594131 
	C227.730820,183.528900 226.443573,183.122406 225.069153,182.369202 
z"/>
<path fill="#000000" opacity="1.000000" stroke="none" 
	d="
M121.579918,286.253387 
	C122.396553,286.099823 122.963264,286.154297 123.529968,286.208771 
	C123.506615,286.405579 123.483261,286.602386 123.459908,286.799225 
	C122.749939,286.686615 122.039963,286.574036 121.579918,286.253387 
z"/>
<path fill="#56A9DC" opacity="1.000000" stroke="none" 
	d="
M215.005035,277.628906 
	C214.989578,278.120911 214.976334,278.290344 214.966080,278.714600 
	C214.969055,278.969452 214.473633,278.969330 214.225830,278.982391 
	C213.542435,278.995972 213.106842,278.996490 212.344788,278.995605 
	C212.018311,278.994171 211.522522,278.963104 211.274216,278.968689 
	C211.031631,278.798950 211.037369,278.623596 211.022339,278.184418 
	C211.001358,277.496948 211.001144,277.073273 211.002472,276.330994 
	C212.073975,276.001404 213.143906,275.990417 214.615967,275.996826 
	C215.014465,276.444916 215.010849,276.875610 215.005035,277.628906 
z"/>
<path fill="#9DCEED" opacity="1.000000" stroke="none" 
	d="
M184.734039,293.132782 
	C184.852982,293.039673 184.894409,293.499603 184.873871,293.729004 
	C184.534576,293.774353 184.455154,293.530182 184.734039,293.132782 
z"/>
<path fill="#000000" opacity="1.000000" stroke="none" 
	d="
M162.049561,248.958496 
	C162.092010,247.147217 162.092010,245.350479 162.092010,243.269165 
	C164.031891,243.269165 165.760178,243.269165 167.611679,243.269165 
	C168.852448,247.573151 167.538330,249.643387 162.472946,248.954834 
	C162.053802,248.896042 162.007111,248.973022 162.049561,248.958496 
z"/>
</svg>